<svg width="20" height="18" viewBox="0 0 20 18" fill="none" xmlns="http://www.w3.org/2000/svg">
<path d="M12.4804 16.4901V14.8301C12.4804 14.1697 12.2178 13.5365 11.7509 13.0695C11.3423 12.661 10.8067 12.4089 10.2368 12.3522L9.99035 12.3401H5.01035C4.34996 12.3401 3.71681 12.6026 3.24985 13.0695C2.78288 13.5365 2.52035 14.1697 2.52035 14.8301L2.52035 16.4901C2.52035 16.9485 2.14874 17.3201 1.69035 17.3201C1.23196 17.3201 0.860352 16.9485 0.860352 16.4901L0.860352 14.8301C0.860352 13.7294 1.29789 12.6741 2.07617 11.8958C2.85445 11.1176 3.90971 10.6801 5.01035 10.6801H9.99035L10.1962 10.685C11.2219 10.7358 12.1949 11.1663 12.9246 11.8958C13.7028 12.6741 14.1404 13.7294 14.1404 14.8301V16.4901C14.1404 16.9485 13.7688 17.3201 13.3104 17.3201C12.8519 17.3201 12.4804 16.9485 12.4804 16.4901Z" fill="#565D6D"/>
<path d="M14.9917 4.83006C14.9917 4.27853 14.8088 3.74245 14.4713 3.30624C14.1759 2.92444 13.7766 2.63784 13.3236 2.47948L13.1266 2.4195L13.0456 2.39437C12.6511 2.2482 12.4238 1.82394 12.5317 1.40794C12.6396 0.992041 13.044 0.732193 13.4598 0.79597L13.5433 0.812993L13.7086 0.859191C14.5306 1.10901 15.256 1.6089 15.7836 2.29062C16.3462 3.01768 16.6517 3.91075 16.6517 4.83006C16.6517 5.74938 16.3462 6.64244 15.7836 7.36954C15.2209 8.09654 14.4332 8.61645 13.5433 8.84711C13.0995 8.96215 12.6468 8.6958 12.5317 8.25217C12.4166 7.80853 12.683 7.35568 13.1266 7.24063C13.6605 7.1022 14.1337 6.79014 14.4713 6.35389C14.8088 5.91768 14.9917 5.3816 14.9917 4.83006Z" fill="#565D6D"/>
<path d="M17.4957 16.4904V14.8312L17.4868 14.6254C17.4468 14.1471 17.2695 13.689 16.9737 13.3074C16.6779 12.9258 16.2784 12.6394 15.8252 12.4815L15.6282 12.4215L15.5471 12.3963C15.1525 12.2506 14.925 11.8268 15.0324 11.4107C15.1399 10.9948 15.544 10.7338 15.9597 10.7972L16.0432 10.8149L16.2085 10.8612C17.031 11.1102 17.7578 11.6087 18.2859 12.2902C18.8493 13.0168 19.155 13.9102 19.1557 14.8296V16.4904C19.1556 16.9488 18.784 17.3204 18.3257 17.3204C17.8674 17.3204 17.4958 16.9488 17.4957 16.4904Z" fill="#565D6D"/>
<path d="M9.99059 4.83005C9.99059 3.45487 8.87581 2.34005 7.50059 2.34005C6.1254 2.34005 5.01059 3.45487 5.01059 4.83005C5.01059 6.20524 6.1254 7.32005 7.50059 7.32005C8.87581 7.32005 9.99059 6.20524 9.99059 4.83005ZM11.6506 4.83005C11.6506 7.12203 9.79255 8.98005 7.50059 8.98005C5.20861 8.98005 3.35059 7.12203 3.35059 4.83005C3.35059 2.53808 5.20861 0.680054 7.50059 0.680054C9.79255 0.680054 11.6506 2.53808 11.6506 4.83005Z" fill="#565D6D"/>
</svg>
