<svg width="20" height="18" viewBox="0 0 20 18" fill="none" xmlns="http://www.w3.org/2000/svg">
<path d="M9.16992 16.48L9.16992 4.86003C9.16992 4.40164 9.54151 4.03003 9.99992 4.03003C10.4583 4.03003 10.8299 4.40164 10.8299 4.86003L10.8299 16.48C10.8299 16.9384 10.4583 17.31 9.99992 17.31C9.54151 17.31 9.16992 16.9384 9.16992 16.48Z" fill="#565D6D"/>
<path d="M13.3191 2.35995C12.6588 2.35995 12.0256 2.62248 11.5586 3.08945C11.0917 3.55641 10.8291 4.18956 10.8291 4.84995L10.8251 4.93506C10.7825 5.35349 10.4288 5.67995 9.99914 5.67995C9.54073 5.67995 9.16914 5.30834 9.16914 4.84995C9.16914 4.18956 8.90661 3.55641 8.43965 3.08945C7.97268 2.62248 7.33953 2.35995 6.67914 2.35995L2.52914 2.35995L2.52914 13.15L7.50914 13.15L7.67368 13.154C8.49427 13.1947 9.27272 13.5389 9.85646 14.1226C9.90585 14.172 9.95324 14.2229 9.99914 14.275C10.045 14.2229 10.0924 14.172 10.1418 14.1226C10.7644 13.5 11.6086 13.15 12.4891 13.15H17.4691L17.4691 2.35995L13.3191 2.35995ZM19.1291 13.15C19.1291 13.5902 18.9541 14.0123 18.6428 14.3237C18.3315 14.6349 17.9094 14.81 17.4691 14.81H12.4891C12.0489 14.81 11.6268 14.985 11.3154 15.2962C11.0042 15.6076 10.8291 16.0297 10.8291 16.47C10.8291 16.9284 10.4575 17.3 9.99914 17.3C9.54073 17.3 9.16914 16.9284 9.16914 16.47C9.16914 16.0297 8.99409 15.6076 8.68284 15.2962C8.41035 15.0238 8.05301 14.8557 7.67287 14.8181L7.50914 14.81L2.52914 14.81C2.08888 14.81 1.66678 14.6349 1.35547 14.3237C1.08299 14.0512 0.914915 13.6939 0.87725 13.3137L0.869141 13.15L0.869141 2.35995C0.869141 1.91969 1.04415 1.49759 1.35547 1.18628C1.66678 0.874965 2.08888 0.699951 2.52914 0.699951L6.67914 0.699951C7.77979 0.699951 8.83507 1.13749 9.61336 1.91577C9.75313 2.05561 9.88186 2.20438 9.99914 2.36076C10.1164 2.20438 10.2452 2.05561 10.3849 1.91577C11.1632 1.13749 12.2185 0.699951 13.3191 0.699951L17.4691 0.699951C17.9094 0.699951 18.3315 0.874965 18.6428 1.18628C18.9541 1.49759 19.1291 1.91969 19.1291 2.35995L19.1291 13.15Z" fill="#565D6D"/>
</svg>
