<svg width="18" height="20" viewBox="0 0 18 20" fill="none" xmlns="http://www.w3.org/2000/svg">
<path d="M4.83984 4.99009L4.83984 1.67009C4.83984 1.2117 5.21145 0.840088 5.66984 0.840088C6.12824 0.840088 6.49984 1.2117 6.49984 1.67009L6.49984 4.99009C6.49984 5.44848 6.12824 5.82009 5.66984 5.82009C5.21145 5.82009 4.83984 5.44848 4.83984 4.99009Z" fill="#565D6D"/>
<path d="M11.5 4.99009L11.5 1.67009C11.5 1.2117 11.8716 0.840088 12.33 0.840088C12.7884 0.840088 13.16 1.2117 13.16 1.67009L13.16 4.99009C13.16 5.44848 12.7884 5.82009 12.33 5.82009C11.8716 5.82009 11.5 5.44848 11.5 4.99009Z" fill="#565D6D"/>
<path d="M15.6392 5.02003C15.6392 4.56164 15.2676 4.19003 14.8092 4.19003L3.18922 4.19003C2.73083 4.19003 2.35922 4.56164 2.35922 5.02003L2.35922 16.64C2.35922 17.0984 2.73083 17.47 3.18922 17.47L14.8092 17.47C15.2676 17.47 15.6392 17.0984 15.6392 16.64L15.6392 5.02003ZM17.2992 16.64C17.2992 18.0153 16.1844 19.13 14.8092 19.13L3.18922 19.13C1.81403 19.13 0.699219 18.0153 0.699219 16.64L0.699219 5.02003C0.699219 3.64484 1.81403 2.53003 3.18922 2.53003L14.8092 2.53003C16.1844 2.53003 17.2992 3.64484 17.2992 5.02003L17.2992 16.64Z" fill="#565D6D"/>
<path d="M16.4692 7.5C16.9276 7.5 17.2992 7.87161 17.2992 8.33C17.2992 8.78841 16.9276 9.16 16.4692 9.16L1.52922 9.16C1.07083 9.16 0.699219 8.78841 0.699219 8.33C0.699219 7.87161 1.07083 7.5 1.52922 7.5L16.4692 7.5Z" fill="#565D6D"/>
<path d="M5.67795 10.8401L5.76305 10.8442C6.18158 10.8867 6.50795 11.2403 6.50795 11.6701C6.50795 12.0999 6.18158 12.4535 5.76305 12.496L5.67795 12.5001H5.66984C5.21145 12.5001 4.83984 12.1285 4.83984 11.6701C4.83984 11.2117 5.21145 10.8401 5.66984 10.8401H5.67795Z" fill="#565D6D"/>
<path d="M9.00806 10.8401L9.09313 10.8442C9.51162 10.8867 9.83806 11.2403 9.83806 11.6701C9.83806 12.0999 9.51162 12.4535 9.09313 12.496L9.00806 12.5001H8.99992C8.54151 12.5001 8.16992 12.1285 8.16992 11.6701C8.16992 11.2117 8.54151 10.8401 8.99992 10.8401H9.00806Z" fill="#565D6D"/>
<path d="M12.3479 10.8401L12.433 10.8442C12.8515 10.8867 13.1779 11.2403 13.1779 11.6701C13.1779 12.0999 12.8515 12.4535 12.433 12.496L12.3479 12.5001H12.3398C11.8814 12.5001 11.5098 12.1285 11.5098 11.6701C11.5098 11.2117 11.8814 10.8401 12.3398 10.8401H12.3479Z" fill="#565D6D"/>
<path d="M5.67795 14.1702L5.76305 14.1742C6.18158 14.2167 6.50795 14.5704 6.50795 15.0002C6.50795 15.4299 6.18158 15.7836 5.76305 15.8261L5.67795 15.8302H5.66984C5.21145 15.8302 4.83984 15.4586 4.83984 15.0002C4.83984 14.5418 5.21145 14.1702 5.66984 14.1702H5.67795Z" fill="#565D6D"/>
<path d="M9.00806 14.1702L9.09313 14.1742C9.51162 14.2167 9.83806 14.5704 9.83806 15.0002C9.83806 15.4299 9.51162 15.7836 9.09313 15.8261L9.00806 15.8302H8.99992C8.54151 15.8302 8.16992 15.4586 8.16992 15.0002C8.16992 14.5418 8.54151 14.1702 8.99992 14.1702H9.00806Z" fill="#565D6D"/>
<path d="M12.3479 14.1702L12.433 14.1742C12.8515 14.2167 13.1779 14.5704 13.1779 15.0002C13.1779 15.4299 12.8515 15.7836 12.433 15.8261L12.3479 15.8302H12.3398C11.8814 15.8302 11.5098 15.4586 11.5098 15.0002C11.5098 14.5418 11.8814 14.1702 12.3398 14.1702H12.3479Z" fill="#565D6D"/>
</svg>
