<svg width="40" height="41" viewBox="0 0 40 41" fill="none" xmlns="http://www.w3.org/2000/svg">
<path d="M35.0299 20.5C35.0299 12.1992 28.3008 5.47001 19.9999 5.47001C11.699 5.47001 4.96988 12.1992 4.96988 20.5C4.96988 28.8009 11.699 35.53 19.9999 35.53C28.3008 35.53 35.0299 28.8009 35.0299 20.5ZM38.3699 20.5C38.3699 30.6454 30.1453 38.87 19.9999 38.87C9.85442 38.87 1.62988 30.6454 1.62988 20.5C1.62988 10.3545 9.85442 2.13 19.9999 2.13C30.1453 2.13 38.3699 10.3545 38.3699 20.5Z" fill="#FF9BFE"/>
<path d="M18.3198 10.49C18.3198 9.5677 19.0675 8.82001 19.9898 8.82001C20.9122 8.82001 21.6598 9.5677 21.6598 10.49L21.6598 19.4776L27.4168 22.3562L27.5651 22.4409C28.2802 22.8941 28.5504 23.8236 28.1636 24.597C27.777 25.3704 26.8709 25.7126 26.0795 25.4123L25.9228 25.3438L19.2428 22.0038C18.6772 21.7209 18.3198 21.1426 18.3198 20.51L18.3198 10.49Z" fill="#FF9BFE"/>
</svg>
