<svg width="68" height="65" viewBox="0 0 68 65" fill="none" xmlns="http://www.w3.org/2000/svg">
<path d="M61.0541 21.2484C61.0541 17.4117 59.628 13.7332 57.091 11.0202C54.5542 8.30728 51.1147 6.78204 47.5271 6.78204C45.183 6.78204 43.3581 7.13563 41.6708 7.92163C39.964 8.71671 38.2085 10.042 36.1253 12.2697C34.9515 13.5252 33.0487 13.5252 31.8748 12.2697C29.7917 10.042 28.0362 8.71671 26.3295 7.92163C24.642 7.13563 22.8172 6.78204 20.4731 6.78204C16.8855 6.78204 13.4459 8.30728 10.9091 11.0202C8.37228 13.7332 6.94608 17.4117 6.94608 21.2484C6.94608 26.4434 9.71013 30.7586 13.4102 34.8671L34.0001 56.8868L52.9373 36.6345L54.5753 34.8642C58.2747 30.7191 61.0541 26.4126 61.0541 21.2484ZM67.0661 21.2484C67.0661 30.0555 61.6327 36.5146 57.1646 41.1995L57.1673 41.2024L36.1253 63.7056C34.9515 64.9613 33.0487 64.9613 31.8748 63.7056L10.868 41.2403L9.14188 39.4005C5.07476 34.9079 0.934082 28.9921 0.934082 21.2484C0.934082 15.7065 2.99118 10.39 6.65546 6.47124C10.3197 2.55249 15.291 0.352539 20.4731 0.352539C23.4195 0.352539 26.1046 0.802636 28.7309 2.02585C30.5741 2.88451 32.2921 4.08554 34.0001 5.62987C35.7081 4.08554 37.426 2.88451 39.2693 2.02585C41.8956 0.802636 44.5806 0.352539 47.5271 0.352539C52.7091 0.352539 57.6805 2.55249 61.3448 6.47124C65.0091 10.39 67.0661 15.7065 67.0661 21.2484Z" fill="#FF9B00"/>
<path d="M46.0181 17.9748C48.865 17.975 51.6098 19.1063 53.7209 21.1487L62.6214 29.7004C63.856 30.887 63.9564 32.9196 62.8475 34.2399C61.7382 35.5602 59.8375 35.6705 58.6027 34.4849L49.7049 25.9332L49.6932 25.9206C48.6871 24.9444 47.3765 24.4045 46.0181 24.4043C44.6648 24.4043 43.3562 24.9365 42.3513 25.9049L42.3543 25.9081L36.131 32.0173L36.1046 32.0423C32.3173 35.6737 26.563 35.5573 22.9534 31.6971L22.9563 31.6939C22.0682 30.7487 21.3596 29.6284 20.8779 28.3913C20.3947 27.1501 20.147 25.8179 20.147 24.4734C20.147 23.1288 20.3947 21.7966 20.8779 20.5554C21.3612 19.3143 22.0701 18.1873 22.9622 17.2402L31.8541 7.73407L32.0798 7.51431C33.2606 6.48347 35.0038 6.55674 36.1046 7.73407C37.2045 8.91086 37.2724 10.7726 36.3102 12.0351L36.1046 12.2799L27.1982 21.8049C26.8691 22.1544 26.6073 22.5713 26.4291 23.0292C26.251 23.487 26.159 23.9776 26.159 24.4734C26.159 24.9691 26.251 25.4598 26.4291 25.9175C26.5628 26.2609 26.7426 26.5827 26.9633 26.8688L27.1982 27.1418L27.207 27.1514L27.4624 27.3993C28.7886 28.5662 30.7386 28.5521 32.0919 27.2549L38.2887 21.1738L38.3004 21.1613L38.7057 20.7877C40.7591 18.9737 43.3436 17.9748 46.0181 17.9748Z" fill="#FF9B00"/>
<path d="M43.8629 33.4227C44.9634 32.2458 46.7038 32.1732 47.8846 33.2029L48.1133 33.4227L54.1253 39.8522L54.331 40.0972C55.2938 41.3596 55.2258 43.221 54.1253 44.3979C53.0248 45.5751 51.2844 45.6478 50.1036 44.6178L49.8749 44.3979L43.8629 37.9684L43.6572 37.7238C42.6944 36.461 42.7624 34.5997 43.8629 33.4227Z" fill="#FF9B00"/>
<path d="M34.8629 43.0477C35.9634 41.8708 37.7038 41.7982 38.8846 42.8279L39.1133 43.0477L45.1253 49.4772L45.331 49.7222C46.2938 50.9846 46.2258 52.846 45.1253 54.0229C44.0248 55.2001 42.2844 55.2728 41.1036 54.2428L40.8749 54.0229L34.8629 47.5934L34.6572 47.3488C33.6944 46.086 33.7624 44.2247 34.8629 43.0477Z" fill="#FF9B00"/>
</svg>
