<svg width="18" height="19" viewBox="0 0 18 19" fill="none" xmlns="http://www.w3.org/2000/svg">
<path d="M10.6607 17.4851L10.6607 10.8451L7.34066 10.8451L7.34066 17.4851C7.34066 17.9435 6.96906 18.3151 6.51066 18.3151C6.05227 18.3151 5.68066 17.9435 5.68066 17.4851L5.68066 10.8451C5.68066 10.4048 5.85569 9.98269 6.16699 9.67136C6.4783 9.36011 6.90041 9.18506 7.34066 9.18506L10.6607 9.18506C11.1009 9.18506 11.523 9.36011 11.8344 9.67136C12.1456 9.98269 12.3207 10.4048 12.3207 10.8451L12.3207 17.4851C12.3207 17.9435 11.9491 18.3151 11.4907 18.3151C11.0323 18.3151 10.6607 17.9435 10.6607 17.4851Z" fill="#565D6D"/>
<path d="M15.6402 8.33466L15.6353 8.24469C15.6256 8.15509 15.6013 8.06745 15.5632 7.98532C15.5124 7.87582 15.4382 7.77875 15.346 7.70082L15.3419 7.69677L9.53596 2.72082C9.40482 2.60998 9.24305 2.54371 9.07315 2.52872L9.0002 2.52548C8.80407 2.52548 8.61425 2.59502 8.46443 2.72163L8.4636 2.72082L2.65848 7.69677L2.65442 7.70082C2.56223 7.77875 2.48801 7.87582 2.43719 7.98532C2.38642 8.09477 2.3602 8.21402 2.3602 8.33466L2.3602 15.8047C2.3602 16.0248 2.4477 16.2366 2.60336 16.3923C2.75899 16.5479 2.97017 16.6347 3.1902 16.6347L14.8102 16.6347C15.0302 16.6347 15.2414 16.5479 15.397 16.3923C15.5527 16.2366 15.6402 16.0248 15.6402 15.8047L15.6402 8.33466ZM17.3002 15.8047C17.3002 16.465 17.0377 17.099 16.5707 17.5659C16.1038 18.0328 15.4705 18.2947 14.8102 18.2947L3.1902 18.2947C2.52991 18.2947 1.89663 18.0328 1.42969 17.5659C0.962724 17.099 0.700195 16.465 0.700195 15.8047L0.700195 8.33466C0.700195 7.9727 0.778871 7.61498 0.931201 7.28663C1.08363 6.95812 1.3063 6.66691 1.58288 6.43313L7.38883 1.45718L7.3929 1.45393L7.56712 1.31938C7.98519 1.02512 8.48543 0.865479 9.0002 0.865479L9.21981 0.875206C9.65631 0.913851 10.0749 1.06718 10.4333 1.31938L10.6075 1.45393L10.6116 1.45718L16.4175 6.43313L16.5188 6.5231C16.7487 6.73998 16.9358 6.99915 17.0692 7.28663C17.2215 7.61498 17.3002 7.9727 17.3002 8.33466V15.8047Z" fill="#565D6D"/>
</svg>
