<svg width="40" height="41" viewBox="0 0 40 41" fill="none" xmlns="http://www.w3.org/2000/svg">
<path d="M30.0199 25.505C30.0199 22.7839 28.6762 20.0568 25.6361 17.6246C23.301 15.7566 21.3454 13.2911 19.9999 10.5549C18.6544 13.2911 16.6988 15.7566 14.3636 17.6246C11.3236 20.0568 9.97989 22.7839 9.97989 25.505C9.97989 28.1625 11.0363 30.7104 12.9154 32.5895C14.7946 34.4685 17.3424 35.525 19.9999 35.525C22.6574 35.525 25.2053 34.4685 27.0844 32.5895C28.9635 30.7104 30.0199 28.1625 30.0199 25.505ZM33.3599 25.505C33.3599 29.0482 31.9529 32.447 29.4474 34.9525C26.9419 37.458 23.5431 38.865 19.9999 38.865C16.4566 38.865 13.0578 37.458 10.5523 34.9525C8.04683 32.447 6.63989 29.0482 6.63989 25.505C6.63989 21.5461 8.63618 17.9272 12.2761 15.0153C15.322 12.5786 17.6078 8.91121 18.3625 5.13718L18.3984 4.99366C18.6053 4.28889 19.2537 3.79498 19.9999 3.79498C20.7958 3.79498 21.481 4.35674 21.6373 5.13718C22.392 8.91121 24.6777 12.5786 27.7236 15.0153C31.3636 17.9272 33.3599 21.5461 33.3599 25.505Z" fill="#FF9BFE"/>
</svg>
