<svg width="19" height="28" viewBox="0 0 19 28" fill="none" xmlns="http://www.w3.org/2000/svg">
<path d="M9.87776 7.82672C9.87776 7.15793 10.1666 6.51673 10.6802 6.04382C11.1938 5.57092 11.8904 5.30505 12.6168 5.30505L15.3558 5.30505L15.3558 2.78339L12.6168 2.78339C11.1639 2.78339 9.77094 3.31512 8.74368 4.26093C7.71628 5.20673 7.13876 6.48914 7.13876 7.82672L7.13876 11.6092C7.13876 12.3056 6.52563 12.8701 5.76926 12.8701L3.03026 12.8701L3.03026 15.3917L5.76926 15.3917C6.52563 15.3917 7.13876 15.9562 7.13876 16.6526L7.13876 25.4784L9.87776 25.4784L9.87776 16.6526C9.87776 15.9562 10.4909 15.3917 11.2473 15.3917H14.2871L14.9719 12.8701H11.2473C10.4909 12.8701 9.87776 12.3056 9.87776 11.6092L9.87776 7.82672ZM12.6168 10.3484H16.7253C17.1469 10.3484 17.545 10.5275 17.8046 10.8335C18.0639 11.1394 18.1554 11.538 18.0533 11.9146L16.6838 16.9579C16.5313 17.5192 15.9842 17.9134 15.3558 17.9134H12.6168L12.6168 26.7392C12.6168 27.4356 12.0036 28 11.2473 28L5.76926 28C5.01291 28 4.39976 27.4356 4.39976 26.7392L4.39976 17.9134H1.66076C0.904412 17.9134 0.29126 17.3489 0.29126 16.6526L0.29126 11.6092L0.297943 11.4799C0.368239 10.8443 0.951797 10.3484 1.66076 10.3484L4.39976 10.3484L4.39976 7.82672C4.39976 5.82035 5.26609 3.89674 6.80707 2.47802C8.34803 1.05931 10.4375 0.261719 12.6168 0.261719L16.7253 0.261719L16.8656 0.267872C17.5561 0.33259 18.0948 0.869844 18.0948 1.52255V6.56589C18.0948 7.26222 17.4816 7.82672 16.7253 7.82672L12.6168 7.82672V10.3484Z" fill="white"/>
</svg>
