<svg width="20" height="21" viewBox="0 0 20 21" fill="none" xmlns="http://www.w3.org/2000/svg">
<path d="M10.8349 6.35012C10.8349 5.90986 11.0099 5.48776 11.3212 5.17645C11.6325 4.86514 12.0547 4.69012 12.4949 4.69012H14.1549V3.03012L12.4949 3.03012C11.6144 3.03012 10.7702 3.38015 10.1476 4.00278C9.52491 4.62539 9.1749 5.46959 9.1749 6.35012L9.1749 8.84012C9.1749 9.29853 8.80331 9.67012 8.3449 9.67012H6.6849L6.6849 11.3301H8.3449C8.80331 11.3301 9.1749 11.7017 9.1749 12.1601V17.9701H10.8349V12.1601C10.8349 11.7017 11.2065 11.3301 11.6649 11.3301H13.5073L13.9223 9.67012H11.6649C11.2065 9.67012 10.8349 9.29853 10.8349 8.84012L10.8349 6.35012ZM12.4949 8.01012L14.9849 8.01012C15.2405 8.01012 15.4817 8.12802 15.639 8.32948C15.7962 8.53087 15.8517 8.79326 15.7898 9.04114L14.9598 12.3611C14.8674 12.7307 14.5358 12.9901 14.1549 12.9901H12.4949V18.8001C12.4949 19.2585 12.1233 19.6301 11.6649 19.6301H8.3449C7.88651 19.6301 7.5149 19.2585 7.5149 18.8001L7.5149 12.9901H5.8549C5.39651 12.9901 5.0249 12.6185 5.0249 12.1601L5.0249 8.84012L5.02895 8.75501C5.07156 8.33658 5.42523 8.01012 5.8549 8.01012H7.5149V6.35012C7.5149 5.02934 8.03995 3.76303 8.97388 2.8291C9.90779 1.89517 11.1741 1.37012 12.4949 1.37012L14.9849 1.37012L15.07 1.37417C15.4885 1.41677 15.8149 1.77044 15.8149 2.20012L15.8149 5.52012C15.8149 5.97851 15.4433 6.35012 14.9849 6.35012L12.4949 6.35012L12.4949 8.01012Z" fill="#171A1F"/>
</svg>
