<svg width="36" height="57" viewBox="0 0 36 57" fill="none" xmlns="http://www.w3.org/2000/svg">
<path d="M30.5713 18.3282C30.5713 14.951 29.2286 11.7131 26.8408 9.32506C24.6019 7.08634 21.6164 5.76559 18.4691 5.6094L17.8375 5.59448C14.4603 5.59448 11.2224 6.93702 8.83433 9.32506C6.4463 11.7131 5.10375 14.951 5.10375 18.3282L5.12364 19.1092C5.22826 20.9674 5.79627 23.0597 8.17776 25.4413C9.98312 27.2467 11.7988 29.5327 12.5575 32.5045L12.6943 33.1088L12.7316 33.3675C12.8553 34.6521 11.9898 35.8471 10.6972 36.1058C9.40386 36.3643 8.14437 35.5939 7.7649 34.3598L7.70024 34.1087L7.52864 33.4345C7.11635 32.1049 6.2954 30.8824 5.16592 29.6567L4.5765 29.0424C1.16332 25.6292 0.228179 22.3171 0.0475635 19.5021L0.0102539 18.3282C0.0102539 13.6001 1.88734 9.06458 5.23058 5.7213C8.57385 2.37806 13.1095 0.500977 17.8375 0.500977L18.7205 0.523363C23.1271 0.741695 27.3099 2.58676 30.4444 5.7213C33.7878 9.06458 35.6648 13.6001 35.6648 18.3282C35.6648 22.2271 34.1772 26.2114 31.0961 29.0401L31.0984 29.0424C29.2294 30.9115 28.3439 32.2625 27.9748 34.1087C27.6988 35.4875 26.3569 36.3816 24.9778 36.1058C23.599 35.8298 22.7049 34.4879 22.9807 33.1088C23.6303 29.8617 25.2916 27.6468 27.4973 25.4413L27.5944 25.3491C29.5393 23.5987 30.5713 21.0094 30.5713 18.3282Z" fill="#FF9B00"/>
<path d="M25.4776 41.2031C26.8842 41.2031 28.0244 42.3433 28.0244 43.7499C28.0244 45.1564 26.8842 46.2966 25.4776 46.2966L10.1971 46.2966C8.79062 46.2966 7.65039 45.1564 7.65039 43.7499C7.65039 42.3433 8.79062 41.2031 10.1971 41.2031L25.4776 41.2031Z" fill="#FF9B00"/>
<path d="M22.931 51.375C24.3376 51.375 25.4778 52.5152 25.4778 53.9217C25.4778 55.3283 24.3376 56.4685 22.931 56.4685H12.744C11.3375 56.4685 10.1973 55.3283 10.1973 53.9217C10.1973 52.5152 11.3375 51.375 12.744 51.375H22.931Z" fill="#FF9B00"/>
</svg>
