<svg width="40" height="41" viewBox="0 0 40 41" fill="none" xmlns="http://www.w3.org/2000/svg">
<path d="M23.35 22.16C23.35 21.7171 23.174 21.2925 22.8607 20.9793C22.5476 20.666 22.1229 20.49 21.68 20.49H16.67C16.1832 20.49 15.9161 20.6066 15.773 20.7183L15.6686 20.8244C15.6152 20.8957 15.5551 20.9631 15.4909 21.0249L6.13953 30.0419C5.4757 30.682 4.41829 30.6632 3.77805 29.9995C3.13792 29.3357 3.15679 28.2782 3.82045 27.6381L13.1 18.6896C14.0089 17.5777 15.3651 17.15 16.67 17.15H21.68C23.0087 17.15 24.2827 17.6782 25.2223 18.6178C26.1618 19.5573 26.69 20.8312 26.69 22.16C26.69 23.4888 26.1618 24.7627 25.2223 25.7023C24.2827 26.6418 23.0087 27.17 21.68 27.17L18.34 27.17C17.4177 27.17 16.67 26.4224 16.67 25.5C16.67 24.5777 17.4177 23.83 18.34 23.83H21.68C22.1229 23.83 22.5476 23.654 22.8607 23.3407C23.174 23.0276 23.35 22.6029 23.35 22.16Z" fill="#FF9BFE"/>
<path d="M33.5409 15.3917C34.8699 15.4292 36.1307 15.9942 37.0439 16.9606C37.9569 17.9268 38.4482 19.2164 38.4106 20.5452C38.373 21.871 37.8102 23.1259 36.8481 24.0385L36.8498 24.0402L29.2061 31.3496C27.6812 33.0485 25.5569 33.8546 23.3382 33.8546H16.6582C16.1717 33.8546 15.9043 33.9713 15.7612 34.0829L15.6568 34.1889C15.5873 34.2816 15.5075 34.367 15.4203 34.4435L12.7474 36.7821C12.0533 37.389 10.998 37.3194 10.3908 36.6255C9.78342 35.9314 9.85485 34.8761 10.549 34.2689L13.1159 32.0199C14.0246 30.9336 15.3668 30.5146 16.6582 30.5146L23.3382 30.5146C24.7627 30.5146 25.9491 30.0058 26.758 29.0811L26.8592 28.9735L34.5422 21.6265L34.5487 21.6199L34.6645 21.4993C34.9163 21.2087 35.0612 20.8385 35.0723 20.4507C35.0848 20.007 34.9203 19.5761 34.6155 19.2536C34.3109 18.9315 33.8909 18.7428 33.4479 18.7301C33.0597 18.7191 32.6808 18.8436 32.3764 19.0791L32.2394 19.1965L25.2266 25.7102L25.0945 25.8194C24.4193 26.3298 23.4536 26.2558 22.8652 25.622C22.2383 24.9462 22.2777 23.8896 22.9532 23.2621L29.9562 16.7616C30.9223 15.8486 32.2121 15.3543 33.5409 15.3917Z" fill="#FF9BFE"/>
<path d="M2.13926 25.9793C2.75066 25.368 3.71761 25.3302 4.37354 25.8651L4.50074 25.9793L14.5207 35.9993L14.6349 36.1266C15.1699 36.7824 15.1322 37.7493 14.5207 38.3607C13.9093 38.9723 12.9424 39.01 12.2865 38.4749L12.1593 38.3607L2.13926 28.3407L2.0251 28.2136C1.49011 27.5577 1.52784 26.5907 2.13926 25.9793Z" fill="#FF9BFE"/>
<path d="M29.8426 15.5007C29.8426 13.7485 28.4228 12.3274 26.6707 12.327C24.9183 12.327 23.497 13.7482 23.497 15.5007C23.4973 17.2527 24.9185 18.6727 26.6707 18.6727C28.4225 18.6724 29.8423 17.2525 29.8426 15.5007ZM33.1826 15.5007C33.1823 19.0972 30.2672 22.0124 26.6707 22.0127C23.0738 22.0127 20.1573 19.0974 20.157 15.5007C20.157 11.9036 23.0736 8.987 26.6707 8.987C30.2673 8.98735 33.1826 11.9038 33.1826 15.5007Z" fill="#FF9BFE"/>
<path d="M13.3401 8.83002C13.3401 6.98539 11.8447 5.49002 10.0001 5.49002C8.15544 5.49002 6.66007 6.98539 6.66007 8.83002C6.66007 10.6747 8.15544 12.17 10.0001 12.17C11.8447 12.17 13.3401 10.6747 13.3401 8.83002ZM16.6801 8.83002C16.6801 12.5193 13.6893 15.51 10.0001 15.51C6.3108 15.51 3.32007 12.5193 3.32007 8.83002C3.32007 5.14076 6.3108 2.15002 10.0001 2.15002C13.6893 2.15002 16.6801 5.14076 16.6801 8.83002Z" fill="#FF9BFE"/>
</svg>
