<svg width="20" height="18" viewBox="0 0 20 18" fill="none" xmlns="http://www.w3.org/2000/svg">
<path d="M8.59064 12.5808C8.89451 12.2769 9.37508 12.2582 9.7011 12.524L9.76426 12.5808L11.4243 14.2408L11.4924 14.3024C11.563 14.3602 11.6421 14.4076 11.7266 14.4426C11.8394 14.4893 11.9604 14.5131 12.0825 14.5131C12.2045 14.5131 12.3255 14.4893 12.4383 14.4426C12.5512 14.3959 12.6542 14.3272 12.7406 14.2408C12.827 14.1543 12.8957 14.0513 12.9424 13.9384C12.9774 13.8539 12.9999 13.7649 13.0089 13.6742L13.013 13.5826C13.013 13.4605 12.9891 13.3396 12.9424 13.2268C12.9074 13.1422 12.8601 13.063 12.8022 12.9926L12.7406 12.9244L12.6839 12.8613C12.418 12.5352 12.4368 12.0547 12.7406 11.7508C13.0445 11.4469 13.5251 11.4282 13.8511 11.694L13.9143 11.7508L14.0018 11.8432C14.2014 12.0633 14.362 12.3163 14.476 12.5913C14.6062 12.9056 14.673 13.2424 14.673 13.5826L14.6697 13.7099C14.6551 14.0066 14.5899 14.2989 14.476 14.5739C14.3458 14.8882 14.1549 15.1739 13.9143 15.4144C13.6737 15.655 13.388 15.8459 13.0737 15.9762C12.7595 16.1063 12.4227 16.1731 12.0825 16.1731C11.7423 16.1731 11.4054 16.1063 11.0912 15.9762C10.8161 15.8622 10.5631 15.7015 10.343 15.502L10.2506 15.4144L8.59064 13.7544L8.53387 13.6913C8.268 13.3652 8.28675 12.8847 8.59064 12.5808Z" fill="#565D6D"/>
<path d="M11.0814 10.0631C11.4054 9.73912 11.931 9.7392 12.2551 10.0631L14.3301 12.1381L14.399 12.2005C14.5645 12.3359 14.7725 12.4111 14.9883 12.4112L15.0807 12.4063C15.2936 12.3852 15.4938 12.2907 15.6464 12.1381C15.7991 11.9853 15.8936 11.7853 15.9147 11.5723L15.9187 11.4807C15.9187 11.2647 15.8438 11.0562 15.708 10.8906L15.6464 10.8225L12.4261 7.60137C12.1149 7.29064 11.6931 7.1167 11.2533 7.1167C10.8134 7.11675 10.3916 7.2914 10.0804 7.6022L10.0796 7.60137L9.35009 8.33252C8.86429 8.81815 8.2052 9.09122 7.51825 9.09122C6.83126 9.09114 6.1722 8.81823 5.6864 8.33252C5.23092 7.87701 4.96274 7.26907 4.93098 6.62874L4.92773 6.50068C4.92773 5.81358 5.20056 5.15388 5.6864 4.66803L8.01997 2.33528L8.18938 2.17317C9.0527 1.38096 10.1432 0.875831 11.31 0.732017C12.5541 0.578708 13.8141 0.844515 14.8902 1.48745L15.28 1.72007L15.2849 1.72251L15.3522 1.75979C15.4906 1.82666 15.6451 1.85327 15.7979 1.8376L15.8741 1.82626L17.3145 1.53689L17.3988 1.52392C17.8175 1.48308 18.2073 1.76565 18.292 2.18695C18.3822 2.63624 18.0912 3.07328 17.642 3.16366L16.1976 3.45465L16.1944 3.45545C15.5884 3.57473 14.9598 3.46401 14.4306 3.14583L14.0408 2.91401L14.0399 2.9132C13.2806 2.45925 12.3914 2.27172 11.5134 2.37986C10.6354 2.48806 9.81838 2.88589 9.19206 3.51058L6.86008 5.84252C6.68572 6.01703 6.58773 6.25398 6.58773 6.50068L6.5926 6.59227C6.61375 6.80518 6.70754 7.00536 6.86008 7.15803C7.03457 7.33253 7.27148 7.43114 7.51825 7.43122C7.76508 7.43122 8.00187 7.33253 8.1764 7.15803L8.9067 6.42773L9.02664 6.31426C9.63544 5.76368 10.4285 5.45674 11.2533 5.4567C12.0781 5.4567 12.8718 5.7635 13.4806 6.31426L13.5998 6.42773L16.8201 9.64807L16.9092 9.74128C17.3395 10.2165 17.5787 10.8365 17.5787 11.4807L17.5763 11.6088C17.5446 12.2491 17.2756 12.857 16.8201 13.3125C16.3647 13.7678 15.7572 14.0361 15.1171 14.068L14.9883 14.0712C14.3442 14.0711 13.7248 13.8311 13.2496 13.4008L13.1564 13.3125L11.0814 11.2375C10.7573 10.9134 10.7573 10.3872 11.0814 10.0631Z" fill="#565D6D"/>
<path d="M17.4245 0.688274C17.8526 0.649356 18.2344 0.943001 18.3144 1.35617L18.3266 1.43965L19.1566 10.5697C19.1777 10.8019 19.0998 11.0329 18.9426 11.2051C18.7853 11.3772 18.5629 11.475 18.3298 11.475H16.6698C16.2114 11.475 15.8398 11.1034 15.8398 10.645C15.8398 10.1866 16.2114 9.81503 16.6698 9.81503H17.4204L16.6731 1.59041L16.6698 1.5053C16.6742 1.0847 16.9966 0.727284 17.4245 0.688274Z" fill="#565D6D"/>
<path d="M2.58515 0.703411C3.04156 0.745019 3.37802 1.14911 3.33653 1.60555L2.54138 10.3481L7.66161 15.4684C7.83615 15.6429 8.07294 15.7407 8.31976 15.7407C8.5666 15.7407 8.8034 15.6429 8.97795 15.4684C9.1525 15.2938 9.25027 15.057 9.25027 14.8102C9.25027 14.5941 9.17533 14.3857 9.03954 14.2201L8.97795 14.152L8.92118 14.0888C8.65533 13.7628 8.67409 13.2822 8.97795 12.9784C9.28181 12.6745 9.76238 12.6557 10.0884 12.9216L10.1516 12.9784L10.24 13.0716C10.6703 13.5468 10.9103 14.166 10.9103 14.8102C10.9103 15.4972 10.6375 16.1562 10.1516 16.642C9.66577 17.1279 9.00683 17.4007 8.31976 17.4007C7.63268 17.4007 6.97378 17.1279 6.48794 16.642L1.09293 11.247C0.918759 11.0728 0.830714 10.8301 0.853015 10.5848L1.68302 1.45479C1.72462 0.998385 2.12872 0.66192 2.58515 0.703411Z" fill="#565D6D"/>
<path d="M9.14969 1.5C9.6081 1.5 9.97969 1.87161 9.97969 2.33C9.97969 2.78839 9.6081 3.16 9.14969 3.16L2.50969 3.16C2.0513 3.16 1.67969 2.78839 1.67969 2.33C1.67969 1.87161 2.0513 1.5 2.50969 1.5L9.14969 1.5Z" fill="#565D6D"/>
</svg>
