<svg width="18" height="17" viewBox="0 0 18 17" fill="none" xmlns="http://www.w3.org/2000/svg">
<path d="M16.6 5.395C16.6 4.40442 16.2062 3.45468 15.5057 2.75424C14.8053 2.05379 13.8556 1.66 12.865 1.66C12.2178 1.66 11.7139 1.75129 11.248 1.95423C10.7767 2.1595 10.292 2.50168 9.71681 3.07683C9.39269 3.40097 8.8673 3.40097 8.54319 3.07683C7.968 2.50168 7.48328 2.1595 7.01204 1.95423C6.5461 1.75129 6.04225 1.66 5.395 1.66C4.40442 1.66 3.45468 2.05379 2.75424 2.75424C2.05379 3.45468 1.66 4.40442 1.66 5.395C1.66 6.73628 2.42319 7.85039 3.44482 8.91113L9.13 14.5963L14.3588 9.36746L14.8111 8.91038C15.8326 7.84018 16.6 6.72831 16.6 5.395ZM18.26 5.395C18.26 7.66887 16.7598 9.3365 15.5261 10.5461L15.5268 10.5468L9.71681 16.3568C9.39269 16.681 8.8673 16.681 8.54319 16.3568L2.74289 10.5566L2.26629 10.0816C1.1433 8.92167 0 7.3943 0 5.395C0 3.96415 0.567994 2.59152 1.57976 1.57976C2.59152 0.567994 3.96415 0 5.395 0C6.20855 0 6.94995 0.116208 7.67509 0.432023C8.18405 0.653716 8.65839 0.963804 9.13 1.36253C9.60161 0.963804 10.076 0.653716 10.5849 0.432023C11.3101 0.116208 12.0514 0 12.865 0C14.2958 0 15.6685 0.567994 16.6803 1.57976C17.692 2.59152 18.26 3.96415 18.26 5.395Z" fill="#565D6D"/>
<path d="M12.4617 4.53212C13.2478 4.53218 14.0057 4.82425 14.5886 5.35159L17.0462 7.5595C17.387 7.86585 17.4148 8.39066 17.1086 8.73154C16.8023 9.07242 16.2775 9.10089 15.9365 8.79479L13.4797 6.58686L13.4765 6.58362C13.1987 6.33158 12.8368 6.19218 12.4617 6.19212C12.0881 6.19212 11.7268 6.32953 11.4493 6.57957L11.4501 6.58038L9.73178 8.15768L9.72448 8.16415C8.67876 9.10172 7.0899 9.07167 6.09325 8.07501L6.09405 8.07418C5.84884 7.83016 5.65319 7.54091 5.52019 7.22152C5.38676 6.90106 5.31836 6.55709 5.31836 6.20996C5.31836 5.86282 5.38676 5.51886 5.52019 5.1984C5.65361 4.87798 5.84935 4.58699 6.09568 4.34246L8.55086 1.88812L8.61319 1.83139C8.93922 1.56524 9.42054 1.58415 9.72448 1.88812C10.0282 2.19195 10.0469 2.67262 9.78125 2.99857L9.72448 3.06179L7.2653 5.52099C7.17442 5.61124 7.10216 5.71886 7.05294 5.83711C7.00378 5.95528 6.97836 6.08196 6.97836 6.20996C6.97836 6.33795 7.00378 6.46463 7.05294 6.58281C7.08985 6.67148 7.13951 6.75456 7.20045 6.82843L7.2653 6.8989L7.26773 6.90139L7.33825 6.96538C7.70443 7.26667 8.24285 7.26302 8.61651 6.92812L10.3276 5.35807L10.3308 5.35483L10.4427 5.25837C11.0097 4.79004 11.7233 4.53212 12.4617 4.53212Z" fill="#565D6D"/>
<path d="M11.8836 8.55327C12.1875 8.24941 12.668 8.23065 12.994 8.4965L13.0572 8.55327L14.7172 10.2133L14.774 10.2765C15.0398 10.6025 15.0211 11.083 14.7172 11.3869C14.4133 11.6908 13.9328 11.7096 13.6068 11.4437L13.5436 11.3869L11.8836 9.72689L11.8268 9.66373C11.561 9.3377 11.5797 8.85713 11.8836 8.55327Z" fill="#565D6D"/>
<path d="M9.38359 11.0533C9.68745 10.7494 10.168 10.7306 10.494 10.9965L10.5572 11.0533L12.2172 12.7133L12.274 12.7765C12.5398 13.1025 12.5211 13.583 12.2172 13.8869C11.9133 14.1908 11.4328 14.2096 11.1068 13.9437L11.0436 13.8869L9.38359 12.2269L9.32682 12.1637C9.06097 11.8377 9.07973 11.3571 9.38359 11.0533Z" fill="#565D6D"/>
</svg>
