<svg width="16" height="16" viewBox="0 0 16 16" fill="none" xmlns="http://www.w3.org/2000/svg">
<path d="M14.0309 7.99988C14.0309 4.66961 11.3312 1.96988 8.00086 1.96988C4.67058 1.96988 1.97086 4.66961 1.97086 7.99988C1.97086 11.3302 4.67058 14.0299 8.00086 14.0299C11.3312 14.0299 14.0309 11.3302 14.0309 7.99988ZM15.3709 7.99988C15.3709 12.0702 12.0712 15.3699 8.00086 15.3699C3.93052 15.3699 0.630859 12.0702 0.630859 7.99988C0.630859 3.92955 3.93052 0.629883 8.00086 0.629883C12.0712 0.629883 15.3709 3.92955 15.3709 7.99988Z" fill="#565D6D"/>
<path d="M7.32031 3.98982C7.32031 3.6198 7.62027 3.31982 7.99031 3.31982C8.36035 3.31982 8.66031 3.6198 8.66031 3.98982L8.66031 7.59563L10.97 8.75051L11.0295 8.78448C11.3164 8.96632 11.4248 9.33924 11.2696 9.64951C11.1145 9.95979 10.751 10.0971 10.4335 9.97661L10.3706 9.94914L7.69062 8.60914C7.46369 8.49564 7.32031 8.26362 7.32031 8.00982L7.32031 3.98982Z" fill="#565D6D"/>
</svg>
