<svg width="14" height="16" viewBox="0 0 14 16" fill="none" xmlns="http://www.w3.org/2000/svg">
<path d="M3.65967 4.00991L3.65967 1.32991C3.65967 0.959885 3.95964 0.659912 4.32967 0.659912C4.6997 0.659912 4.99967 0.959885 4.99967 1.32991L4.99967 4.00991C4.99967 4.37994 4.6997 4.67991 4.32967 4.67991C3.95964 4.67991 3.65967 4.37994 3.65967 4.00991Z" fill="#FF9B00"/>
<path d="M9 4.00991V1.32991C9 0.959885 9.29996 0.659912 9.67 0.659912C10.04 0.659912 10.34 0.959885 10.34 1.32991V4.00991C10.34 4.37994 10.04 4.67991 9.67 4.67991C9.29996 4.67991 9 4.37994 9 4.00991Z" fill="#FF9B00"/>
<path d="M12.3598 3.97997C12.3598 3.60994 12.0598 3.30997 11.6898 3.30997L2.3098 3.30997C1.93978 3.30997 1.6398 3.60994 1.6398 3.97997L1.6398 13.36C1.6398 13.73 1.93978 14.03 2.3098 14.03L11.6898 14.03C12.0598 14.03 12.3598 13.73 12.3598 13.36L12.3598 3.97997ZM13.6998 13.36C13.6998 14.4701 12.7999 15.37 11.6898 15.37L2.3098 15.37C1.19972 15.37 0.299805 14.4701 0.299805 13.36L0.299805 3.97997C0.299805 2.86988 1.19972 1.96997 2.3098 1.96997L11.6898 1.96997C12.7999 1.96997 13.6998 2.86988 13.6998 3.97997L13.6998 13.36Z" fill="#FF9B00"/>
<path d="M13.0298 6C13.3998 6 13.6998 6.29997 13.6998 6.67C13.6998 7.04004 13.3998 7.34 13.0298 7.34L0.969805 7.34C0.599777 7.34 0.299805 7.04004 0.299805 6.67C0.299805 6.29997 0.599777 6 0.969805 6L13.0298 6Z" fill="#FF9B00"/>
</svg>
