<svg width="23" height="19" viewBox="0 0 23 19" fill="none" xmlns="http://www.w3.org/2000/svg">
<path fill-rule="evenodd" clip-rule="evenodd" d="M14.5558 0.201495C12.4995 -0.067165 10.5006 -0.067165 8.44427 0.201495C7.59138 0.31293 6.88119 0.830553 6.50478 1.53575L5.76871 2.91477C5.38903 2.94407 5.01213 2.97405 4.63897 3.00374L4.63716 3.00388L4.39637 3.02304C2.40961 3.18089 0.734443 4.60408 0.428996 6.50163C0.210624 7.85824 0 9.31682 0 10.823C0 12.3291 0.210624 13.7877 0.428998 15.1443C0.734443 17.0419 2.40961 18.4652 4.39637 18.623L4.63723 18.642L4.65558 18.6436C6.83332 18.8168 9.13552 19 11.5 19C13.8645 19 16.1667 18.8168 18.3443 18.6436L18.3629 18.642L18.6036 18.623C20.5904 18.4652 22.2655 17.0419 22.5711 15.1443C22.7894 13.7877 23 12.3291 23 10.823C23 9.31682 22.7894 7.85824 22.5711 6.50163C22.2655 4.60408 20.5904 3.18089 18.6036 3.02304L18.3629 3.00388C17.9896 2.97418 17.6111 2.94408 17.2314 2.91479L16.4953 1.53575C16.1189 0.830553 15.4087 0.31293 14.5558 0.201495ZM8.72014 2.16272C10.5934 1.91799 12.4067 1.91799 14.28 2.16272C14.4326 2.18266 14.5828 2.27924 14.6692 2.44112L15.6672 4.3108C15.8303 4.6163 16.1461 4.81843 16.5015 4.84478C17.0691 4.88685 17.6323 4.93167 18.1938 4.97634L18.4348 4.99551C19.5293 5.08247 20.3898 5.86158 20.5416 6.80504C20.7587 8.15271 20.9464 9.48133 20.9464 10.823C20.9464 12.1646 20.7587 13.4933 20.5416 14.8409C20.3898 15.7844 19.5293 16.5636 18.4348 16.6505L18.1938 16.6697C15.9986 16.8443 13.7731 17.0208 11.5 17.0208C9.22691 17.0208 7.00141 16.8443 4.80618 16.6697L4.56509 16.6505C3.47063 16.5636 2.61017 15.7844 2.45829 14.8409C2.24137 13.4933 2.05357 12.1646 2.05357 10.823C2.05357 9.48133 2.24137 8.15269 2.45829 6.80504C2.61016 5.86156 3.47063 5.08247 4.56509 4.99551L4.80611 4.97634C5.36767 4.93166 5.93101 4.88685 6.4986 4.84478C6.85403 4.81843 7.16986 4.6163 7.33293 4.31078L8.3309 2.44112C8.41729 2.27924 8.56753 2.18266 8.72014 2.16272ZM8.52728 7.65266C9.24142 6.96698 10.2646 6.63224 11.4999 6.63224C12.7352 6.63224 13.7584 6.96698 14.4725 7.65266C15.1869 8.33856 15.536 9.32178 15.536 10.5089C15.536 11.6961 15.1869 12.6793 14.4725 13.3652C13.7584 14.0508 12.7352 14.3855 11.4999 14.3855C10.2646 14.3855 9.24142 14.0508 8.52728 13.3652C7.81292 12.6793 7.46385 11.6961 7.46385 10.5089C7.46385 9.32178 7.81292 8.33856 8.52728 7.65266Z" fill="white"/>
</svg>
