<svg width="14" height="16" viewBox="0 0 14 16" fill="none" xmlns="http://www.w3.org/2000/svg">
<path d="M11.6848 6.42761C11.6274 5.26831 11.142 4.16789 10.3173 3.34325C9.4927 2.51861 8.39229 2.03321 7.23299 1.97577L7.0007 1.96988C5.75685 1.96988 4.56362 2.46371 3.68407 3.34325C2.80453 4.2228 2.3107 5.41601 2.3107 6.65988C2.3107 8.10661 3.12595 9.66624 4.18526 11.0581C5.2089 12.4029 6.38397 13.4914 7.0007 14.0266C7.61744 13.4914 8.79248 12.4029 9.81611 11.0581C10.8754 9.66624 11.6907 8.10661 11.6907 6.65988L11.6848 6.42761ZM13.0307 6.65988C13.0307 8.55846 11.9905 10.4139 10.8826 11.8694C9.89979 13.1608 8.79845 14.2214 8.10975 14.8366L7.84149 15.0722C7.8301 15.0821 7.81817 15.0919 7.80611 15.1009C7.60303 15.2537 7.36116 15.3448 7.10931 15.3653L7.0007 15.3699C6.74657 15.3699 6.49847 15.2975 6.28487 15.1625L6.1953 15.1009L6.15992 15.0722C5.51989 14.5195 4.24196 13.3451 3.11876 11.8694C2.01096 10.4139 0.970703 8.55846 0.970703 6.65988C0.970703 5.06063 1.6058 3.52667 2.73665 2.39583C3.8675 1.26498 5.40145 0.629883 7.0007 0.629883C8.59993 0.629883 10.1339 1.26498 11.2648 2.39583C12.3956 3.52667 13.0307 5.06063 13.0307 6.65988Z" fill="#565D6D"/>
<path d="M8.34031 6.66999C8.34031 5.92993 7.74039 5.32999 7.00031 5.32999C6.26023 5.32999 5.66031 5.92993 5.66031 6.66999C5.66031 7.41007 6.26023 8.00999 7.00031 8.00999C7.74039 8.00999 8.34031 7.41007 8.34031 6.66999ZM9.68031 6.66999C9.68031 8.15009 8.48041 9.34999 7.00031 9.34999C5.52019 9.34999 4.32031 8.15009 4.32031 6.66999C4.32031 5.18987 5.52019 3.98999 7.00031 3.98999C8.48041 3.98999 9.68031 5.18987 9.68031 6.66999Z" fill="#565D6D"/>
</svg>
