<svg width="20" height="21" viewBox="0 0 20 21" fill="none" xmlns="http://www.w3.org/2000/svg">
<g opacity="0.8">
<rect y="0.5" width="20" height="20" stroke="white"/>
<path d="M17.4701 6.35012C17.4701 4.51653 15.9837 3.03012 14.1501 3.03012L5.85012 3.03012C4.01653 3.03012 2.53012 4.51653 2.53012 6.35012L2.53012 14.6501C2.53012 16.4837 4.01653 17.9701 5.85012 17.9701L14.1501 17.9701C15.9837 17.9701 17.4701 16.4837 17.4701 14.6501L17.4701 6.35012ZM19.1301 14.6501C19.1301 17.4005 16.9005 19.6301 14.1501 19.6301L5.85012 19.6301C3.09974 19.6301 0.870117 17.4005 0.870117 14.6501L0.870117 6.35012C0.870117 3.59974 3.09974 1.37012 5.85012 1.37012L14.1501 1.37012C16.9005 1.37012 19.1301 3.59974 19.1301 6.35012L19.1301 14.6501Z" fill="#171A1F"/>
<path d="M8.13148 6.77348C8.90619 6.37154 9.78815 6.22399 10.6514 6.352L10.816 6.38037C11.6336 6.5354 12.3867 6.93305 12.9769 7.52324C13.6066 8.15284 14.0176 8.96795 14.1481 9.84866L14.1685 10.0108C14.2563 10.8219 14.1035 11.6424 13.7267 12.3687C13.3247 13.1434 12.6883 13.7716 11.9086 14.1641C11.129 14.5564 10.2455 14.6933 9.38377 14.5548C8.52198 14.4161 7.72581 14.0088 7.10857 13.3916C6.49134 12.7743 6.08412 11.9782 5.94544 11.1164C5.80685 10.2547 5.94373 9.37116 6.33612 8.59154C6.72857 7.81192 7.35674 7.17548 8.13148 6.77348ZM10.4083 7.99417C9.89024 7.91734 9.3607 8.00584 8.89582 8.24705C8.43093 8.48828 8.05408 8.87026 7.81861 9.33805C7.58318 9.80584 7.50117 10.336 7.58437 10.853C7.66757 11.3701 7.91191 11.8476 8.28225 12.2179C8.65254 12.5882 9.13012 12.8326 9.64721 12.9158C10.1642 12.999 10.6943 12.917 11.1621 12.6815C11.6299 12.4461 12.0119 12.0692 12.2531 11.6044C12.4642 11.1977 12.5582 10.7417 12.5271 10.2872L12.506 10.0919C12.4276 9.56348 12.181 9.07461 11.8032 8.69691C11.4728 8.36643 11.0572 8.13627 10.6045 8.03145L10.4083 7.99417Z" fill="#171A1F"/>
<path d="M14.5981 5.09009L14.6832 5.09414C15.1017 5.13666 15.4281 5.49035 15.4281 5.92009C15.4281 6.34983 15.1017 6.70352 14.6832 6.74604L14.5981 6.75009H14.59C14.1316 6.75009 13.76 6.37848 13.76 5.92009C13.76 5.4617 14.1316 5.09009 14.59 5.09009H14.5981Z" fill="#171A1F"/>
</g>
</svg>
