<svg width="24" height="25" viewBox="0 0 24 25" fill="none" xmlns="http://www.w3.org/2000/svg">
<path d="M21.7111 6.89756C21.7111 4.42222 19.7787 2.41556 17.3951 2.41556L6.6051 2.41556C4.22144 2.41556 2.2891 4.42222 2.2891 6.89756L2.2891 18.1026C2.2891 20.5779 4.22144 22.5846 6.6051 22.5846L17.3951 22.5846C19.7787 22.5846 21.7111 20.5779 21.7111 18.1026L21.7111 6.89756ZM23.8691 18.1026C23.8691 21.8156 20.9706 24.8256 17.3951 24.8256L6.6051 24.8256C3.02961 24.8256 0.131104 21.8156 0.131104 18.1026L0.131104 6.89756C0.131104 3.18455 3.02961 0.174561 6.6051 0.174561L17.3951 0.174561C20.9706 0.174561 23.8691 3.18455 23.8691 6.89756L23.8691 18.1026Z" fill="white"/>
<path d="M9.57091 7.46917C10.578 6.92655 11.7246 6.72736 12.8468 6.90017L13.0608 6.93847C14.1236 7.14777 15.1027 7.68459 15.87 8.48134C16.6885 9.33131 17.2228 10.4317 17.3926 11.6207L17.419 11.8396C17.5331 12.9346 17.3345 14.0422 16.8446 15.0227C16.3221 16.0686 15.4947 16.9166 14.4812 17.4465C13.4677 17.9761 12.3191 18.1609 11.1989 17.9739C10.0786 17.7867 9.04352 17.2368 8.24111 16.4036C7.43872 15.5703 6.90933 14.4955 6.72905 13.3321C6.54888 12.1688 6.72682 10.976 7.23693 9.92355C7.74712 8.87106 8.56374 8.01188 9.57091 7.46917ZM12.5308 9.1171C11.8573 9.01339 11.1689 9.13286 10.5645 9.4585C9.96019 9.78415 9.47028 10.2998 9.16417 10.9313C8.85811 11.5629 8.7515 12.2785 8.85965 12.9765C8.96781 13.6745 9.28546 14.3192 9.7669 14.8191C10.2483 15.3191 10.8691 15.649 11.5414 15.7614C12.2135 15.8736 12.9026 15.7629 13.5107 15.445C14.1189 15.1272 14.6154 14.6185 14.929 13.9909C15.2034 13.4418 15.3256 12.8263 15.2852 12.2127L15.2578 11.949C15.1559 11.2357 14.8352 10.5757 14.3442 10.0658C13.9146 9.61966 13.3744 9.30894 12.7858 9.16744L12.5308 9.1171Z" fill="white"/>
<path d="M17.9778 5.19653L18.0884 5.202C18.6324 5.2594 19.0568 5.73688 19.0568 6.31703C19.0568 6.89718 18.6324 7.37466 18.0884 7.43207L17.9778 7.43753H17.9672C17.3713 7.43753 16.8882 6.93586 16.8882 6.31703C16.8882 5.6982 17.3713 5.19653 17.9672 5.19653H17.9778Z" fill="white"/>
</svg>
