<svg width="56" height="49" viewBox="0 0 56 49" fill="none" xmlns="http://www.w3.org/2000/svg">
<path d="M23.7997 34.8656C24.7179 33.9811 26.1701 33.9268 27.1553 34.7004L27.3461 34.8656L32.3623 39.6963L32.5683 39.8755C32.7814 40.0439 33.0205 40.1816 33.276 40.2835C33.6169 40.4195 33.9823 40.4888 34.3513 40.4888C34.7202 40.4888 35.0856 40.4195 35.4265 40.2835C35.7678 40.1475 36.0791 39.9478 36.3402 39.6963C36.6013 39.4446 36.8087 39.1449 36.9499 38.8164C37.0557 38.5705 37.1237 38.3114 37.1508 38.0474L37.1631 37.781C37.1631 37.4257 37.0911 37.0737 36.9499 36.7455C36.8441 36.4994 36.7011 36.269 36.5263 36.0639L36.3402 35.8656L36.1686 35.6818C35.3653 34.733 35.422 33.3346 36.3402 32.4503C37.2584 31.5658 38.7106 31.5114 39.6958 32.2851L39.8866 32.4503L40.1512 32.7191C40.7542 33.3597 41.2398 34.0959 41.5841 34.8963C41.9774 35.8108 42.1793 36.7909 42.1793 37.781L42.1695 38.1512C42.1254 39.0147 41.9282 39.8654 41.5841 40.6656C41.1906 41.5803 40.6137 42.4117 39.8866 43.1116C39.1598 43.8118 38.2965 44.3674 37.3467 44.7463C36.3971 45.1251 35.3793 45.3195 34.3513 45.3195C33.3234 45.3195 32.3054 45.1251 31.3558 44.7463C30.5247 44.4147 29.7602 43.9471 29.095 43.3664L28.8159 43.1116L23.7997 38.2809L23.6281 38.0971C22.8247 37.1484 22.8814 35.7499 23.7997 34.8656Z" fill="#FF9B00"/>
<path d="M31.3127 27.6654C32.2918 26.7227 33.88 26.723 34.8594 27.6654L41.1296 33.7038L41.3378 33.8854C41.8379 34.2796 42.4664 34.4984 43.1185 34.4987L43.3977 34.4844C44.0413 34.4228 44.646 34.148 45.1072 33.7038C45.5687 33.2594 45.8541 32.6773 45.9181 32.0573L45.9301 31.7908C45.9301 31.1621 45.7036 30.5556 45.2933 30.0735L45.1072 29.8755L35.376 20.5018C34.4357 19.5975 33.1611 19.0913 31.8321 19.0913C30.5028 19.0915 29.2282 19.5997 28.2879 20.5042L28.2854 20.5018L26.081 22.6294C24.613 24.0427 22.6214 24.8373 20.5456 24.8373C18.4696 24.8371 16.4781 24.0429 15.0101 22.6294C13.6337 21.3039 12.8233 19.5348 12.7273 17.6714L12.7175 17.2987C12.7175 15.2992 13.5419 13.3794 15.0101 11.9656L22.0617 5.17716L22.5736 4.70542C25.1824 2.40004 28.4775 0.930088 32.0034 0.511581C35.763 0.0654427 39.5703 0.838956 42.8221 2.70993L44.0001 3.38688L44.0149 3.39396L44.2181 3.50245C44.6364 3.69706 45.1032 3.77449 45.5652 3.72889L45.7954 3.69587L50.148 2.85381L50.4028 2.81606C51.6679 2.6972 52.8457 3.51951 53.1018 4.74551C53.3744 6.05296 52.4951 7.32478 51.1374 7.58779L46.7728 8.43459L46.7631 8.43693C44.9319 8.78404 43.0325 8.46183 41.4333 7.53591L40.2553 6.8613L40.2528 6.85894C37.9584 5.53791 35.2712 4.99219 32.6181 5.30688C29.9651 5.62175 27.4961 6.77947 25.6035 8.59733L18.5567 15.3834C18.0298 15.8912 17.7337 16.5808 17.7337 17.2987L17.7484 17.5652C17.8123 18.1848 18.0958 18.7673 18.5567 19.2116C19.084 19.7194 19.7999 20.0064 20.5456 20.0066C21.2914 20.0066 22.007 19.7194 22.5344 19.2116L24.7412 17.0864L25.1036 16.7562C26.9433 15.154 29.3398 14.2608 31.8321 14.2607C34.3246 14.2607 36.7229 15.1535 38.5626 16.7562L38.9227 17.0864L48.6539 26.4578L48.9233 26.729C50.2235 28.1118 50.9463 29.9163 50.9463 31.7908L50.939 32.1635C50.8432 34.027 50.0304 35.796 48.6539 37.1215C47.2777 38.4463 45.442 39.2272 43.5078 39.32L43.1185 39.3294C41.1722 39.3291 39.3005 38.6306 37.8646 37.3785L37.5829 37.1215L31.3127 31.0831C30.3333 30.14 30.3333 28.6086 31.3127 27.6654Z" fill="#FF9B00"/>
<path d="M50.3854 0.407041C51.6791 0.293785 52.8328 1.14831 53.0746 2.35064L53.1114 2.59358L55.6195 29.1624C55.6832 29.8382 55.448 30.5104 54.9729 31.0116C54.4977 31.5123 53.8255 31.7971 53.1212 31.7971L48.105 31.7971C46.7198 31.7971 45.5969 30.7157 45.5969 29.3817C45.5969 28.0477 46.7198 26.9664 48.105 26.9664H50.3731L48.1148 3.0323L48.105 2.78463C48.1183 1.56066 49.0925 0.520562 50.3854 0.407041Z" fill="#FF9B00"/>
<path d="M5.76986 0.385069C7.14904 0.50615 8.16577 1.68208 8.04039 3.01033L5.63761 28.4516L21.1099 43.3518C21.6373 43.8598 22.3529 44.1443 23.0987 44.1443C23.8446 44.1443 24.5602 43.8598 25.0877 43.3518C25.6151 42.8439 25.9106 42.1548 25.9106 41.4365C25.9106 40.8078 25.6841 40.2013 25.2738 39.7194L25.0877 39.5211L24.9161 39.3373C24.1128 38.3885 24.1694 36.9901 25.0877 36.1058C26.0059 35.2215 27.4581 35.167 28.4432 35.9406L28.6341 36.1058L28.9012 36.3771C30.2017 37.7601 30.9268 39.5619 30.9268 41.4365C30.9268 43.4359 30.1023 45.3534 28.6341 46.7671C27.1661 48.1811 25.1749 48.975 23.0987 48.975C21.0225 48.975 19.0315 48.1811 17.5633 46.7671L1.26067 31.0674C0.734349 30.5607 0.468292 29.8542 0.535682 29.1404L3.04378 2.57161C3.16951 1.24346 4.3906 0.264326 5.76986 0.385069Z" fill="#FF9B00"/>
<path d="M25.6071 2.83472C26.9923 2.83472 28.1152 3.91611 28.1152 5.25006C28.1152 6.58401 26.9923 7.6654 25.6071 7.6654L5.54228 7.6654C4.15711 7.6654 3.03418 6.58401 3.03418 5.25006C3.03418 3.91611 4.15711 2.83472 5.54228 2.83472L25.6071 2.83472Z" fill="#FF9B00"/>
</svg>
