<svg width="26" height="24" viewBox="0 0 26 24" fill="none" xmlns="http://www.w3.org/2000/svg">
<path d="M16.5206 22.5101L16.5206 20.1701C16.5206 19.2392 16.1506 18.3466 15.4923 17.6884C14.9164 17.1125 14.1613 16.7571 13.358 16.6772L13.0106 16.6601L5.99062 16.6601C5.05971 16.6601 4.1672 17.0301 3.50895 17.6884C2.8507 18.3466 2.48062 19.2392 2.48062 20.1701L2.48062 22.5101C2.48062 23.1563 1.95679 23.6801 1.31062 23.6801C0.664457 23.6801 0.140625 23.1563 0.140625 22.5101L0.140625 20.1701C0.140625 18.6185 0.757402 17.131 1.85449 16.0339C2.95159 14.9369 4.43911 14.3201 5.99062 14.3201L13.0106 14.3201L13.3008 14.327C14.7467 14.3987 16.1183 15.0055 17.1468 16.0339C18.2438 17.131 18.8606 18.6185 18.8606 20.1701L18.8606 22.5101C18.8606 23.1563 18.3368 23.6801 17.6906 23.6801C17.0444 23.6801 16.5206 23.1563 16.5206 22.5101Z" fill="#FF7D3D"/>
<path d="M19.9918 6.1701C19.9918 5.39265 19.734 4.63696 19.2582 4.02207C18.8418 3.48387 18.2789 3.07986 17.6404 2.85663L17.3627 2.77208L17.2485 2.73666C16.6924 2.53062 16.3721 1.93256 16.5241 1.34615C16.6762 0.759883 17.2463 0.393591 17.8324 0.483494L17.9501 0.50749L18.1831 0.572613C19.3419 0.924771 20.3645 1.62943 21.1081 2.59041C21.9012 3.6153 22.3318 4.87421 22.3318 6.1701C22.3318 7.46601 21.9012 8.7249 21.1081 9.74986C20.315 10.7747 19.2045 11.5075 17.9501 11.8327C17.3246 11.9949 16.6863 11.6194 16.5241 10.994C16.3619 10.3687 16.7374 9.73032 17.3627 9.56813C18.1154 9.373 18.7824 8.93311 19.2582 8.31815C19.7341 7.70325 19.9918 6.94758 19.9918 6.1701Z" fill="#FF7D3D"/>
<path d="M23.5059 22.5199V20.1811L23.4934 19.8909C23.437 19.2167 23.187 18.5709 22.7701 18.0331C22.3531 17.4951 21.79 17.0914 21.151 16.8688L20.8734 16.7842L20.7591 16.7487C20.2028 16.5433 19.8821 15.9459 20.0335 15.3594C20.1851 14.7731 20.7546 14.4052 21.3407 14.4945L21.4584 14.5195L21.6914 14.5847C22.8508 14.9358 23.8754 15.6385 24.6198 16.5991C25.4139 17.6234 25.8448 18.8827 25.8459 20.1788V22.5199C25.8458 23.1661 25.3219 23.6899 24.6759 23.6899C24.0298 23.6899 23.506 23.1661 23.5059 22.5199Z" fill="#FF7D3D"/>
<path d="M13.0104 6.17007C13.0104 4.23155 11.439 2.66007 9.50039 2.66007C7.56188 2.66007 5.99039 4.23155 5.99039 6.17007C5.99039 8.10858 7.56188 9.68007 9.50039 9.68007C11.439 9.68007 13.0104 8.10858 13.0104 6.17007ZM15.3504 6.17007C15.3504 9.40093 12.7312 12.0201 9.50039 12.0201C6.26953 12.0201 3.65039 9.40093 3.65039 6.17007C3.65039 2.93921 6.26953 0.320068 9.50039 0.320068C12.7312 0.320068 15.3504 2.93921 15.3504 6.17007Z" fill="#FF7D3D"/>
</svg>
