<svg width="15" height="14" viewBox="0 0 15 14" fill="none" xmlns="http://www.w3.org/2000/svg">
<path d="M0.820312 11.69L0.820312 2.31005C0.820312 1.77696 1.03223 1.26587 1.40918 0.888919C1.78613 0.51197 2.29723 0.300049 2.83031 0.300049L5.51031 0.300049C5.88034 0.300049 6.18031 0.600021 6.18031 0.970049C6.18031 1.34008 5.88034 1.64005 5.51031 1.64005L2.83031 1.64005C2.65262 1.64005 2.48225 1.71069 2.3566 1.83634C2.23095 1.96199 2.16031 2.13235 2.16031 2.31005L2.16031 11.69C2.16031 11.8677 2.23095 12.0381 2.3566 12.1637C2.48225 12.2894 2.65262 12.36 2.83031 12.36H5.51031C5.88034 12.36 6.18031 12.66 6.18031 13.03C6.18031 13.4001 5.88034 13.7 5.51031 13.7H2.83031C2.29723 13.7 1.78613 13.4881 1.40918 13.1112C1.03223 12.7342 0.820312 12.2231 0.820312 11.69Z" fill="white"/>
<path d="M9.68065 3.17636C9.92594 2.93106 10.3139 2.91592 10.577 3.13056L10.628 3.17636L13.978 6.52637C14.2397 6.78801 14.2397 7.21212 13.978 7.47375L10.628 10.8238C10.3664 11.0855 9.94229 11.0855 9.68065 10.8238C9.41895 10.5621 9.41895 10.138 9.68065 9.87637L12.5569 7.00006L9.68065 4.12378L9.63482 4.07274C9.42016 3.80959 9.4353 3.42165 9.68065 3.17636Z" fill="white"/>
<path d="M13.5205 6.33008C13.8906 6.33008 14.1905 6.63004 14.1905 7.00008C14.1905 7.37012 13.8906 7.67008 13.5205 7.67008L5.48055 7.67008C5.11052 7.67008 4.81055 7.37012 4.81055 7.00008C4.81055 6.63004 5.11052 6.33008 5.48055 6.33008L13.5205 6.33008Z" fill="white"/>
</svg>
