<svg width="26" height="24" viewBox="0 0 26 24" fill="none" xmlns="http://www.w3.org/2000/svg">
<path d="M10.8464 16.7057C11.2748 16.2772 11.9522 16.2509 12.4118 16.6256L12.5008 16.7057L14.8408 19.0457L14.9369 19.1325C15.0363 19.214 15.1478 19.2807 15.267 19.3301C15.426 19.396 15.5965 19.4295 15.7686 19.4295C15.9407 19.4295 16.1112 19.396 16.2702 19.3301C16.4294 19.2642 16.5746 19.1674 16.6964 19.0457C16.8182 18.9237 16.915 18.7785 16.9809 18.6194C17.0302 18.5003 17.0619 18.3748 17.0746 18.2469L17.0803 18.1178C17.0803 17.9457 17.0467 17.7753 16.9809 17.6163C16.9315 17.497 16.8648 17.3854 16.7832 17.2861L16.6964 17.19L16.6164 17.101C16.2417 16.6414 16.2681 15.964 16.6964 15.5357C17.1248 15.1072 17.8022 15.0809 18.2618 15.4556L18.3508 15.5357L18.4742 15.6659C18.7555 15.9762 18.982 16.3328 19.1427 16.7205C19.3261 17.1635 19.4203 17.6383 19.4203 18.1178L19.4157 18.2972C19.3952 18.7155 19.3032 19.1276 19.1427 19.5152C18.9591 19.9583 18.69 20.361 18.3508 20.7C18.0117 21.0392 17.609 21.3083 17.166 21.4919C16.723 21.6753 16.2482 21.7695 15.7686 21.7695C15.2892 21.7695 14.8143 21.6753 14.3713 21.4919C13.9836 21.3312 13.6269 21.1047 13.3167 20.8235L13.1864 20.7L10.8464 18.36L10.7664 18.271C10.3916 17.8114 10.418 17.134 10.8464 16.7057Z" fill="#FF7D3D"/>
<path d="M14.3522 13.2226C14.8089 12.7659 15.5498 12.7661 16.0067 13.2226L18.9317 16.1476L19.0288 16.2356C19.2621 16.4265 19.5553 16.5325 19.8595 16.5326L19.9897 16.5257C20.2899 16.4959 20.572 16.3627 20.7872 16.1476C21.0024 15.9323 21.1356 15.6503 21.1654 15.35L21.171 15.2209C21.171 14.9164 21.0654 14.6226 20.874 14.3891L20.7872 14.2931L16.2477 9.75248C15.809 9.31447 15.2145 9.06927 14.5945 9.06927C13.9744 9.06934 13.3798 9.31553 12.9411 9.75365L12.94 9.75248L11.9117 10.7831C11.2269 11.4677 10.2978 11.8526 9.32942 11.8526C8.36102 11.8525 7.43199 11.4678 6.74718 10.7831C6.10512 10.141 5.72708 9.28406 5.68231 8.38143L5.67773 8.20091C5.67773 7.23235 6.06231 6.30241 6.74718 5.61754L10.0367 2.3292L10.2755 2.10068C11.4924 0.983953 13.0296 0.271903 14.6744 0.0691773C16.4282 -0.146933 18.2043 0.227759 19.7212 1.13406L20.2707 1.46198L20.2776 1.46541L20.3724 1.51796C20.5676 1.61223 20.7853 1.64974 21.0008 1.62765L21.1082 1.61166L23.1386 1.20376L23.2575 1.18547C23.8476 1.1279 24.3971 1.52622 24.5165 2.12011C24.6437 2.75344 24.2335 3.36951 23.6002 3.49691L21.5642 3.9071L21.5596 3.90824C20.7054 4.07638 19.8193 3.9203 19.0733 3.47178L18.5238 3.145L18.5226 3.14386C17.4523 2.50395 16.1988 2.2396 14.9611 2.39204C13.7235 2.54456 12.5718 3.10536 11.6889 3.98594L8.40165 7.27314C8.15586 7.51913 8.01773 7.85315 8.01773 8.20091L8.02459 8.33002C8.0544 8.63014 8.18662 8.91232 8.40165 9.12754C8.64762 9.37352 8.98157 9.51252 9.32942 9.51263C9.67737 9.51263 10.0112 9.37352 10.2572 9.12754L11.2866 8.09808L11.4557 7.93812C12.3139 7.162 13.4318 6.72933 14.5945 6.72927C15.7572 6.72927 16.876 7.16175 17.7342 7.93812L17.9022 8.09808L22.4417 12.6376L22.5673 12.769C23.1738 13.4388 23.511 14.3129 23.511 15.2209L23.5076 15.4015C23.463 16.3041 23.0838 17.161 22.4417 17.8031C21.7997 18.4449 20.9434 18.8231 20.0411 18.8681L19.8595 18.8726C18.9515 18.8725 18.0784 18.5342 17.4086 17.9276L17.2772 17.8031L14.3522 14.8781C13.8953 14.4213 13.8953 13.6795 14.3522 13.2226Z" fill="#FF7D3D"/>
<path d="M23.2435 0.0200138C23.847 -0.0348475 24.3852 0.379087 24.498 0.961501L24.5152 1.07918L25.6852 13.9492C25.7149 14.2766 25.6052 14.6022 25.3836 14.845C25.1619 15.0875 24.8483 15.2254 24.5198 15.2254H22.1798C21.5336 15.2254 21.0098 14.7016 21.0098 14.0554C21.0098 13.4092 21.5336 12.8854 22.1798 12.8854H23.2378L22.1843 1.2917L22.1798 1.17173C22.186 0.578829 22.6404 0.0750038 23.2435 0.0200138Z" fill="#FF7D3D"/>
<path d="M2.44649 0.00487749C3.08986 0.0635296 3.56415 0.633156 3.50566 1.27656L2.38479 13.6004L9.60246 20.8181C9.84849 21.0642 10.1823 21.202 10.5302 21.202C10.8782 21.202 11.212 21.0642 11.458 20.8181C11.7041 20.5721 11.8419 20.2383 11.8419 19.8903C11.8419 19.5858 11.7362 19.292 11.5448 19.0586L11.458 18.9625L11.378 18.8735C11.0032 18.4139 11.0297 17.7364 11.458 17.3081C11.8864 16.8798 12.5638 16.8533 13.0234 17.2281L13.1124 17.3081L13.237 17.4395C13.8437 18.1094 14.1819 18.9823 14.1819 19.8903C14.1819 20.8588 13.7973 21.7877 13.1124 22.4725C12.4276 23.1574 11.4987 23.542 10.5302 23.542C9.56168 23.542 8.63287 23.1574 7.948 22.4725L0.343001 14.8675C0.0974766 14.622 -0.0266358 14.2798 0.00480088 13.9341L1.1748 1.06404C1.23345 0.420684 1.80308 -0.0536108 2.44649 0.00487749Z" fill="#FF7D3D"/>
<path d="M11.6999 1.20044C12.3461 1.20044 12.8699 1.72427 12.8699 2.37044C12.8699 3.01661 12.3461 3.54044 11.6999 3.54044L2.33992 3.54044C1.69375 3.54044 1.16992 3.01661 1.16992 2.37044C1.16992 1.72427 1.69375 1.20044 2.33992 1.20044L11.6999 1.20044Z" fill="#FF7D3D"/>
</svg>
