<svg width="16" height="16" viewBox="0 0 16 16" fill="none" xmlns="http://www.w3.org/2000/svg">
<path d="M10.6219 10.6225C10.8672 10.3772 11.2551 10.3621 11.5183 10.5768L11.5693 10.6225L14.477 13.5302L14.5235 13.5812C14.7379 13.8444 14.7222 14.2324 14.477 14.4776C14.2318 14.7228 13.8438 14.7385 13.5806 14.5241L13.5296 14.4776L10.6219 11.57L10.5761 11.5189C10.3615 11.2557 10.3766 10.8678 10.6219 10.6225Z" fill="#171A1F"/>
<path d="M12.0198 7.33005C12.0198 4.73984 9.92002 2.64005 7.3298 2.64005C4.73959 2.64005 2.6398 4.73984 2.6398 7.33005C2.6398 9.92027 4.73959 12.02 7.3298 12.02C9.92002 12.02 12.0198 9.92027 12.0198 7.33005ZM13.3598 7.33005C13.3598 10.6604 10.6601 13.36 7.3298 13.36C3.99953 13.36 1.2998 10.6604 1.2998 7.33005C1.2998 3.99977 3.99953 1.30005 7.3298 1.30005C10.6601 1.30005 13.3598 3.99977 13.3598 7.33005Z" fill="#171A1F"/>
</svg>
