<svg width="53" height="49" viewBox="0 0 53 49" fill="none" xmlns="http://www.w3.org/2000/svg">
<path d="M30.9344 15.6624C32.2487 15.6624 33.3141 16.653 33.3141 17.8751C33.3141 19.0972 32.2487 20.0879 30.9344 20.0879L21.4154 20.0879C20.1011 20.0879 19.0356 19.0972 19.0356 17.8751C19.0356 16.653 20.1011 15.6624 21.4154 15.6624L30.9344 15.6624Z" fill="#FF9B00"/>
<path d="M23.7952 24.5067L23.7952 13.443C23.7952 12.2209 24.8606 11.2302 26.1749 11.2302C27.4893 11.2302 28.5547 12.2209 28.5547 13.443L28.5547 24.5067C28.5547 25.7288 27.4893 26.7195 26.1749 26.7195C24.8606 26.7195 23.7952 25.7288 23.7952 24.5067Z" fill="#FF9B00"/>
<path d="M28.5546 46.6011L28.5546 37.7501C28.5546 37.1632 28.3038 36.6005 27.8574 36.1857C27.4669 35.8223 26.9545 35.5984 26.4095 35.5482L26.1749 35.5373C25.5438 35.5373 24.9386 35.7705 24.4924 36.1857C24.046 36.6005 23.7951 37.1632 23.7951 37.7501L23.7951 46.6011C23.7951 47.8232 22.7297 48.8138 21.4154 48.8138C20.1011 48.8138 19.0356 47.8232 19.0356 46.6011L19.0356 37.7501C19.0356 35.9894 19.7884 34.3015 21.1272 33.0566C22.4661 31.8117 24.2813 31.1118 26.1749 31.1118L26.8814 31.1441C28.5154 31.2953 30.0513 31.9675 31.2226 33.0566C32.5614 34.3015 33.3141 35.9894 33.3141 37.7501V46.6011C33.3141 47.8232 32.2487 48.8138 30.9344 48.8138C29.6201 48.8138 28.5546 47.8232 28.5546 46.6011Z" fill="#FF9B00"/>
<path d="M38.0736 46.6264L38.0736 10.3776L27.2369 5.34052C26.9902 5.22617 26.7239 5.15193 26.4514 5.12228L26.1749 5.10714C25.8057 5.10714 25.4407 5.18501 25.1104 5.33837L25.1128 5.34052L14.2761 10.3776L14.2761 46.6264C14.2761 47.8485 13.2106 48.8392 11.8964 48.8392C10.5821 48.8392 9.5166 47.8485 9.5166 46.6264L9.5166 10.3776L9.52821 10.0685C9.58219 9.35471 9.82116 8.66146 10.2277 8.05028C10.6923 7.35198 11.3575 6.78823 12.1473 6.42096L22.9841 1.38178L23.3606 1.21972C24.2484 0.86552 25.2058 0.681641 26.1749 0.681641L26.5885 0.692461C27.4157 0.737092 28.2279 0.916015 28.9891 1.21972L29.3656 1.38178L40.2023 6.42096C40.9926 6.78821 41.657 7.35158 42.122 8.05028C42.5868 8.74906 42.8326 9.55592 42.8331 10.3776L42.8331 46.6264C42.8331 47.8485 41.7677 48.8392 40.4533 48.8392C39.139 48.8392 38.0736 47.8485 38.0736 46.6264Z" fill="#FF9B00"/>
<path d="M-0.00244141 42.1955L-0.00244141 19.2209L0.00917166 18.914C0.0630492 18.2001 0.302095 17.507 0.708699 16.8958C1.11566 16.284 1.6765 15.775 2.34014 15.4112L2.63063 15.2643L10.8319 11.4503C12.0073 10.9039 13.4372 11.3471 14.0251 12.44C14.6128 13.533 14.1361 14.8625 12.9607 15.4091L4.75706 19.223L4.75706 42.1955C4.75706 42.7823 5.00796 43.345 5.45425 43.7599C5.90055 44.175 6.50565 44.4082 7.13681 44.4082L45.2128 44.4082C45.8439 44.4082 46.4491 44.175 46.8953 43.7599C47.3417 43.345 47.5926 42.7823 47.5926 42.1955L47.5926 19.223L39.3889 15.4091L39.1775 15.2967C38.1585 14.6964 37.7735 13.4647 38.3246 12.44C38.8758 11.4154 40.1668 10.9619 41.2946 11.3596L41.5178 11.4503L49.7167 15.2643H49.7191C50.5094 15.6316 51.176 16.197 51.641 16.8958C52.1055 17.5943 52.3516 18.3996 52.3521 19.2209L52.3521 42.1955C52.3521 43.956 51.5993 45.6441 50.2605 46.889C48.9217 48.1338 47.1064 48.8337 45.2128 48.8337L7.13681 48.8337C5.24336 48.8337 3.42802 48.1338 2.08914 46.889C0.750274 45.6441 -0.00244141 43.956 -0.00244141 42.1955Z" fill="#FF9B00"/>
</svg>
