<svg width="40" height="41" viewBox="0 0 40 41" fill="none" xmlns="http://www.w3.org/2000/svg">
<path d="M28.3502 17.16C28.3502 16.2377 29.0979 15.49 30.0202 15.49H33.6146L33.6162 15.4818L34.585 9.68739V9.68414L34.6029 9.53736C34.6299 9.19224 34.5493 8.84628 34.3698 8.54742C34.1645 8.20597 33.8442 7.94924 33.4663 7.82332L28.047 6.01469C27.6664 7.3973 26.9358 8.67188 25.904 9.70371C24.3381 11.2696 22.2147 12.1499 20.0002 12.15C17.7857 12.15 15.6608 11.2696 14.0949 9.70371C13.0632 8.6718 12.3308 7.39734 11.9503 6.01469L6.53261 7.82168C6.15499 7.94769 5.83417 8.20619 5.62911 8.54742C5.44978 8.84616 5.36889 9.19242 5.39589 9.53736L5.41384 9.68414L5.41546 9.68739L6.38256 15.4818L6.3842 15.49H9.98024C10.9024 15.4902 11.6502 16.2378 11.6502 17.16L11.6502 33.86C11.6502 34.7747 12.4056 35.53 13.3202 35.53L26.6802 35.53C27.123 35.5298 27.5478 35.3538 27.8609 35.0407C28.1741 34.7276 28.3502 34.3029 28.3502 33.86L28.3502 17.16ZM31.6902 33.86C31.6902 35.1886 31.1618 36.4627 30.2225 37.4022C29.2829 38.3418 28.0089 38.8698 26.6802 38.87L13.3202 38.87C10.5609 38.87 8.31024 36.6193 8.31024 33.86L8.31024 18.83H6.38909V18.8283C5.59611 18.8295 4.82807 18.5504 4.22332 18.0374C3.61916 17.5247 3.22001 16.8131 3.09149 16.0314L3.08823 16.0331L2.12114 10.2403L2.06568 9.79666C1.98492 8.76163 2.22849 7.72305 2.76696 6.82687C3.38246 5.80257 4.34374 5.03233 5.47744 4.65456L12.7919 2.21643L12.9843 2.16424C13.4387 2.07096 13.9159 2.16999 14.2971 2.44475C14.7324 2.75864 14.9902 3.2633 14.9902 3.79999C14.9902 5.12873 15.5185 6.40267 16.458 7.34223C17.3975 8.28167 18.6716 8.80999 20.0002 8.80999C21.3289 8.80991 22.6029 8.2817 23.5425 7.34223C24.4819 6.40269 25.0102 5.12864 25.0102 3.79999L25.0216 3.60103C25.0769 3.14042 25.3222 2.7195 25.7033 2.44475C26.1388 2.13098 26.6994 2.0467 27.2086 2.21643L34.5231 4.65456L34.9389 4.81438C35.8908 5.22894 36.6949 5.93059 37.2335 6.82687C37.8489 7.85114 38.078 9.06199 37.8794 10.2403L36.9107 16.0233L36.9123 16.0249C36.7851 16.8093 36.3814 17.5232 35.7756 18.0374C35.1707 18.5504 34.4028 18.8297 33.6097 18.8283V18.83H31.6902L31.6902 33.86Z" fill="#FF9BFE"/>
</svg>
