<svg width="18" height="20" viewBox="0 0 18 20" fill="none" xmlns="http://www.w3.org/2000/svg">
<path d="M10.0126 3.36C10.0126 3.13986 9.92511 2.92882 9.7694 2.77316C9.61378 2.61758 9.40262 2.53 9.18259 2.53H8.81781C8.59777 2.53 8.38662 2.61758 8.231 2.77316C8.07537 2.92882 7.98781 3.13986 7.98781 3.36V3.50994C7.98739 3.9466 7.87161 4.3761 7.65307 4.75414C7.43461 5.132 7.12085 5.44613 6.74284 5.66438L6.74203 5.66357L6.38782 5.87025L6.38539 5.87188C6.00695 6.09029 5.57734 6.20501 5.14039 6.20501C4.70341 6.20496 4.27382 6.09037 3.89539 5.87188L3.79569 5.81838L3.77138 5.80542C3.58093 5.69557 3.35479 5.66594 3.14239 5.72274C2.95642 5.77247 2.79423 5.88472 2.68281 6.03967L2.63823 6.10856L2.45586 6.42387C2.34671 6.61394 2.31744 6.83942 2.37399 7.05123C2.4237 7.23713 2.53606 7.39939 2.69092 7.51081L2.75982 7.55539L2.8044 7.58294L2.92841 7.66562C3.28462 7.8814 3.58122 8.1821 3.79083 8.5426C4.00924 8.91834 4.12539 9.34496 4.12802 9.77955V10.2043L4.12315 10.368C4.09951 10.7498 3.98865 11.122 3.79732 11.4549C3.58095 11.8314 3.26908 12.1436 2.89436 12.3628L2.89518 12.3636L2.77035 12.4381L2.75982 12.4446C2.56955 12.5548 2.43079 12.7363 2.37399 12.9487C2.31744 13.1606 2.34671 13.3861 2.45586 13.5761L2.63742 13.8914C2.74762 14.0817 2.92999 14.2205 3.14239 14.2772C3.35479 14.334 3.58093 14.3044 3.77138 14.1946L3.79569 14.1816L3.89539 14.1281L4.03967 14.0511C4.38136 13.8827 4.75799 13.795 5.14039 13.795C5.52271 13.795 5.89947 13.8828 6.24111 14.0511L6.38539 14.1281L6.38782 14.1297L6.74203 14.3356C7.12003 14.5539 7.43461 14.868 7.65307 15.2458C7.87161 15.6239 7.98739 16.0534 7.98781 16.49V16.64C7.98781 16.8601 8.07537 17.0712 8.231 17.2268C8.38662 17.3824 8.59777 17.47 8.81781 17.47H9.18259C9.40262 17.47 9.61378 17.3824 9.7694 17.2268C9.92511 17.0712 10.0126 16.8601 10.0126 16.64V16.49L10.0182 16.3263C10.0436 15.9466 10.1562 15.5766 10.3473 15.2458C10.5385 14.9153 10.8028 14.6338 11.119 14.4223L11.2576 14.3356L11.6126 14.1297L11.6151 14.1281L11.7593 14.0511C12.101 13.8828 12.4777 13.795 12.8601 13.795C13.297 13.795 13.7266 13.9096 14.1051 14.1281L14.2291 14.1946C14.4195 14.3044 14.6457 14.334 14.858 14.2772C15.0704 14.2205 15.252 14.0817 15.3622 13.8914L15.5397 13.5761L15.5438 13.5697L15.5811 13.4959C15.6595 13.3222 15.6761 13.1256 15.6265 12.9399C15.5696 12.7275 15.4307 12.5467 15.2406 12.4365L15.1417 12.3838C15.1336 12.3795 15.1254 12.3755 15.1174 12.3708C14.7374 12.1514 14.4217 11.8354 14.2031 11.4549C13.9845 11.0745 13.8707 10.643 13.8724 10.2043V9.79249C13.8713 9.35492 13.9851 8.92448 14.2031 8.54509C14.4194 8.16867 14.7306 7.85552 15.1052 7.63644L15.2301 7.56187L15.2406 7.55539L15.3095 7.51081C15.4644 7.39939 15.5767 7.23713 15.6265 7.05123C15.683 6.83942 15.6537 6.61394 15.5445 6.42387L15.3622 6.10775C15.252 5.91749 15.0704 5.77954 14.858 5.72274C14.6721 5.67304 14.4758 5.68959 14.302 5.76813L14.2291 5.80542C14.2211 5.81 14.2128 5.81407 14.2048 5.81838L14.1042 5.87107L14.1051 5.87188C13.7266 6.09037 13.297 6.20496 12.8601 6.20501C12.4231 6.20501 11.9935 6.09029 11.6151 5.87188L11.6126 5.87025L11.2576 5.66357C10.8796 5.44532 10.5659 5.132 10.3473 4.75414C10.1288 4.3761 10.013 3.9466 10.0126 3.50994V3.36ZM11.6726 3.50832L11.6799 3.61694C11.6942 3.72448 11.7298 3.8288 11.7845 3.92332C11.8391 4.01782 11.9115 4.10048 11.9976 4.16649L12.09 4.22809L12.4442 4.43397C12.5703 4.50673 12.7144 4.54501 12.8601 4.54501C13.0057 4.54496 13.149 4.50676 13.2751 4.43397L13.2994 4.42019L13.4234 4.35373C13.9898 4.03518 14.6584 3.95066 15.2868 4.11866C15.8443 4.26776 16.3305 4.60509 16.6647 5.06944L16.7985 5.27612L16.9809 5.59224L16.9817 5.59305L17.0943 5.8119C17.3299 6.33317 17.3795 6.92257 17.2305 7.48001C17.0612 8.11326 16.6481 8.65315 16.0828 8.98441L16.0835 8.98515L15.9474 9.06708C15.8208 9.1402 15.7155 9.24586 15.6426 9.3726C15.5699 9.49934 15.5318 9.6431 15.5324 9.78926V10.2107C15.5318 10.3569 15.5699 10.5007 15.6426 10.6274C15.7144 10.7522 15.8177 10.8559 15.9418 10.9288L16.0471 10.9856L16.0731 11.0002L16.2798 11.1339C16.7439 11.4682 17.0815 11.9537 17.2305 12.5111C17.4002 13.1455 17.311 13.8209 16.9849 14.3907L16.9858 14.3915L16.8033 14.7157L16.7985 14.7239C16.4678 15.2946 15.924 15.7109 15.2868 15.8813C14.6583 16.0494 13.9898 15.9634 13.4234 15.6447V15.6462L13.2994 15.5798C13.2913 15.5754 13.283 15.5706 13.2751 15.5661C13.149 15.4933 13.0057 15.455 12.8601 15.455C12.7144 15.455 12.5711 15.4933 12.4451 15.5661L12.4442 15.5652L12.09 15.7719L11.9976 15.8335C11.9115 15.8996 11.8391 15.9821 11.7845 16.0767C11.7116 16.2027 11.6728 16.3461 11.6726 16.4917V16.64C11.6726 17.3003 11.4107 17.9335 10.9439 18.4005C10.477 18.8675 9.84294 19.13 9.18259 19.13H8.81781C8.15746 19.13 7.5235 18.8675 7.05652 18.4005C6.58974 17.9335 6.32784 17.3003 6.32784 16.64V16.4917L6.32054 16.383C6.30627 16.2755 6.27063 16.1712 6.21599 16.0767C6.16132 15.9821 6.08889 15.8996 6.00281 15.8335L5.91041 15.7719L5.55539 15.5652C5.42927 15.4924 5.286 15.455 5.14039 15.455C5.03125 15.455 4.92367 15.4767 4.82346 15.5182L4.72539 15.5661C4.71742 15.5706 4.7092 15.5754 4.70107 15.5798L4.57706 15.6462L4.57625 15.6447C4.00993 15.963 3.34196 16.0493 2.71361 15.8813C2.15607 15.7322 1.66992 15.3949 1.33568 14.9305L1.20194 14.7239L1.01958 14.4077L1.01876 14.407C0.68926 13.8357 0.599678 13.1571 0.769919 12.52C0.939231 11.8868 1.35167 11.346 1.91685 11.0148L2.05302 10.9329L2.1438 10.8722C2.23023 10.8058 2.30311 10.7225 2.35778 10.6274C2.43057 10.5007 2.4686 10.3569 2.46802 10.2107V9.78926L2.46072 9.68144C2.44605 9.57445 2.40998 9.47062 2.35535 9.37666C2.30073 9.28288 2.22864 9.20071 2.14299 9.13513L2.05302 9.07513L2.00763 9.04682L1.88361 8.96416C1.336 8.63132 0.935803 8.10035 0.769919 7.48001C0.599678 6.84292 0.689268 6.16429 1.01876 5.59305L1.01958 5.59143L1.20194 5.27612L1.33568 5.06944C1.66992 4.60509 2.15607 4.26776 2.71361 4.11866C3.34184 3.95071 4.01001 4.03627 4.57625 4.35453L4.57706 4.35373L4.70107 4.42019L4.72539 4.43397L4.82346 4.48179C4.92367 4.52327 5.03124 4.54497 5.14039 4.54501C5.2497 4.54501 5.35778 4.52334 5.45812 4.48179L5.55539 4.43397L5.91041 4.22809L6.00281 4.16649C6.08889 4.10048 6.16132 4.01782 6.21599 3.92332C6.28873 3.79748 6.32759 3.65448 6.32784 3.50914V3.36C6.32784 2.69975 6.58974 2.06642 7.05652 1.59949C7.5235 1.13252 8.15746 0.869995 8.81781 0.869995L9.18259 0.869995C9.84294 0.869995 10.477 1.13252 10.9439 1.59949C11.4107 2.06642 11.6726 2.69975 11.6726 3.36V3.50832Z" fill="#565D6D"/>
<path d="M10.6607 10.0001C10.6607 9.08324 9.91748 8.34005 9.00066 8.34005C8.08385 8.34005 7.34066 9.08324 7.34066 10.0001C7.34066 10.9169 8.08385 11.6601 9.00066 11.6601C9.91748 11.6601 10.6607 10.9169 10.6607 10.0001ZM12.3207 10.0001C12.3207 11.8336 10.8342 13.3201 9.00066 13.3201C7.16708 13.3201 5.68066 11.8336 5.68066 10.0001C5.68066 8.16647 7.16708 6.68005 9.00066 6.68005C10.8342 6.68005 12.3207 8.16647 12.3207 10.0001Z" fill="#565D6D"/>
</svg>
