<svg width="40" height="41" viewBox="0 0 40 41" fill="none" xmlns="http://www.w3.org/2000/svg">
<path d="M21.6799 30.52L21.6799 10.48C21.6799 10.0371 21.5039 9.61242 21.1906 9.29923C20.9165 9.02512 20.557 8.85601 20.1746 8.81812L20.0099 8.80997L6.64989 8.80997C6.20697 8.80997 5.78234 8.98604 5.46915 9.29923C5.15596 9.61242 4.97989 10.0371 4.97989 10.48L4.97989 28.85H8.31989C9.2422 28.85 9.98989 29.5976 9.98989 30.52C9.98989 31.4423 9.2422 32.19 8.31989 32.19H4.97989C4.09407 32.19 3.24478 31.8378 2.61841 31.2115C2.07017 30.6633 1.73199 29.9443 1.65621 29.1795L1.63989 28.85L1.63989 10.48C1.63989 9.15124 2.16811 7.87731 3.10767 6.93775C4.04723 5.99819 5.32116 5.46997 6.64989 5.46997L20.0099 5.46997L20.5057 5.49444C21.6523 5.60843 22.7302 6.11578 23.5521 6.93775C24.4917 7.87731 25.0199 9.15124 25.0199 10.48L25.0199 30.52C25.0199 31.4423 24.2722 32.19 23.3499 32.19C22.4276 32.19 21.6799 31.4423 21.6799 30.52Z" fill="#FF9BFE"/>
<path d="M25.0098 28.83C25.9322 28.83 26.6798 29.5776 26.6798 30.5C26.6798 31.4223 25.9322 32.17 25.0098 32.17H14.9898C14.0675 32.17 13.3198 31.4223 13.3198 30.5C13.3198 29.5776 14.0675 28.83 14.9898 28.83L25.0098 28.83Z" fill="#FF9BFE"/>
<path d="M35.0099 28.85V22.7571L35.0082 22.7555L29.1975 15.4916L29.196 15.49L23.3199 15.49C22.3976 15.49 21.6499 14.7423 21.6499 13.82C21.6499 12.8977 22.3976 12.15 23.3199 12.15L29.2008 12.15L29.5742 12.1712C29.9453 12.2135 30.3077 12.3181 30.6457 12.481C31.0963 12.6982 31.4914 13.0151 31.8037 13.4057L31.8053 13.4041L37.6144 20.668L37.7824 20.8963C38.1497 21.4433 38.3487 22.0891 38.3499 22.7521V28.85C38.3499 29.7357 37.9977 30.5851 37.3715 31.2115C36.745 31.8378 35.8957 32.19 35.0099 32.19H31.6699C30.7476 32.19 29.9999 31.4423 29.9999 30.52C29.9999 29.5976 30.7476 28.85 31.6699 28.85H35.0099Z" fill="#FF9BFE"/>
<path d="M29.9998 30.5C29.9998 29.5776 29.2522 28.83 28.3298 28.83C27.4075 28.83 26.6598 29.5776 26.6598 30.5C26.6598 31.4223 27.4075 32.17 28.3298 32.17C29.2522 32.17 29.9998 31.4223 29.9998 30.5ZM33.3398 30.5C33.3398 33.267 31.0968 35.51 28.3298 35.51C25.5628 35.51 23.3198 33.267 23.3198 30.5C23.3198 27.733 25.5628 25.49 28.3298 25.49C31.0968 25.49 33.3398 27.733 33.3398 30.5Z" fill="#FF9BFE"/>
<path d="M13.3399 30.5C13.3399 29.5776 12.5922 28.83 11.6699 28.83C10.7476 28.83 9.99991 29.5776 9.99991 30.5C9.99991 31.4223 10.7476 32.17 11.6699 32.17C12.5922 32.17 13.3399 31.4223 13.3399 30.5ZM16.6799 30.5C16.6799 33.267 14.4369 35.51 11.6699 35.51C8.90297 35.51 6.65991 33.267 6.65991 30.5C6.65991 27.733 8.90297 25.49 11.6699 25.49C14.4369 25.49 16.6799 27.733 16.6799 30.5Z" fill="#FF9BFE"/>
</svg>
