<svg width="26" height="24" viewBox="0 0 26 24" fill="none" xmlns="http://www.w3.org/2000/svg">
<path d="M14.8303 1.3833C16.8256 0.306637 19.4286 0.373732 21.4959 2.06145C21.597 2.03617 21.714 2.00404 21.8454 1.95802C22.1686 1.8449 22.516 1.68777 22.8452 1.52081C23.1715 1.35531 23.4636 1.18836 23.6746 1.06245C23.7797 0.999793 23.8634 0.947356 23.9198 0.912009C23.9479 0.894354 23.9698 0.880718 23.9834 0.872053C23.9898 0.867913 23.9942 0.864423 23.997 0.862654H23.9992C24.4145 0.591024 24.9505 0.618259 25.3371 0.931988C25.675 1.20645 25.835 1.64765 25.766 2.07673L25.7218 2.26007V2.26242L25.7207 2.26478C25.7199 2.26713 25.7185 2.27062 25.7172 2.27418C25.7149 2.28126 25.7121 2.29076 25.7081 2.30239C25.7002 2.32597 25.6895 2.35888 25.6752 2.39993C25.6465 2.48235 25.6039 2.59916 25.5493 2.74194C25.4405 3.02679 25.2791 3.42158 25.067 3.86904C24.7174 4.60663 24.2017 5.53899 23.5215 6.36302C25.0202 18.9087 11.8592 27.9829 1.24942 21.2716L0.737645 20.9354C0.302197 20.6366 0.11376 20.0724 0.275796 19.558C0.437954 19.0441 0.910678 18.7052 1.43213 18.7294C3.01339 18.8039 4.57823 18.4638 5.92579 17.7658C0.858155 14.8698 -1.37128 8.01935 1.52064 2.50805L1.59667 2.3823C1.78922 2.10352 2.09017 1.92061 2.4239 1.88516C2.80527 1.84484 3.18168 2.0028 3.42931 2.30591C5.48458 4.82135 8.54334 6.40227 11.7119 6.66037C11.7247 4.26198 13.0279 2.35597 14.8303 1.3833ZM20.3407 4.20284C18.9812 2.88893 17.2253 2.80644 15.9049 3.51881C14.6096 4.21775 13.7298 5.68043 14.1359 7.64409C14.208 7.99334 14.1273 8.3585 13.9145 8.63956C13.7016 8.92066 13.3787 9.08978 13.034 9.10028C9.344 9.21261 5.66203 7.78504 2.93001 5.22298C1.58224 9.77272 4.10419 14.9481 8.68554 16.3719C9.09052 16.4976 9.39816 16.8418 9.48782 17.2697C9.56622 17.6442 9.46716 18.0316 9.22796 18.3158L9.11676 18.4309C8.03468 19.4114 6.75383 20.1299 5.38224 20.5817C13.761 23.2345 22.6476 15.8642 21.1487 6.16087C21.09 5.78005 21.2112 5.39351 21.4744 5.12073C21.6856 4.90196 21.8821 4.65355 22.0666 4.39323C21.7658 4.46999 21.448 4.52722 21.1339 4.52722C20.8396 4.52722 20.5559 4.41082 20.3407 4.20284Z" fill="white"/>
</svg>
