<svg width="20" height="21" viewBox="0 0 20 21" fill="none" xmlns="http://www.w3.org/2000/svg">
<path d="M11.3075 3.52298C12.7327 2.78046 14.592 2.82673 16.0687 3.99067C16.1409 3.97324 16.2244 3.95108 16.3183 3.91934C16.5491 3.84133 16.7973 3.73296 17.0324 3.61782C17.2655 3.50368 17.4742 3.38854 17.6249 3.3017C17.6999 3.25849 17.7598 3.22233 17.8 3.19795C17.8201 3.18578 17.8357 3.17637 17.8454 3.1704C17.85 3.16754 17.8532 3.16514 17.8551 3.16392H17.8567C18.1534 2.97659 18.5362 2.99537 18.8124 3.21173C19.0537 3.40101 19.168 3.70529 19.1187 4.00121L19.0872 4.12765V4.12927L19.0864 4.1309C19.0858 4.13252 19.0848 4.13492 19.0839 4.13738C19.0822 4.14226 19.0802 4.14882 19.0774 4.15684C19.0718 4.1731 19.0641 4.1958 19.0539 4.22411C19.0334 4.28095 19.003 4.36151 18.9639 4.45998C18.8863 4.65642 18.771 4.92869 18.6195 5.23729C18.3697 5.74597 18.0014 6.38897 17.5155 6.95727C18.586 15.6095 9.1853 21.8675 1.60691 17.239L1.24135 17.0072C0.930315 16.8011 0.795717 16.412 0.911458 16.0573C1.02728 15.7029 1.36494 15.4691 1.73741 15.4858C2.86688 15.5372 3.98462 15.3026 4.94717 14.8212C1.32743 12.824 -0.265028 8.09957 1.80063 4.29868L1.85494 4.21195C1.99247 4.01969 2.20744 3.89354 2.44582 3.86909C2.71823 3.84129 2.98709 3.95022 3.16397 4.15927C4.63202 5.89405 6.81685 6.98434 9.08013 7.16234C9.08926 5.50828 10.0201 4.19379 11.3075 3.52298ZM15.2435 5.46749C14.2724 4.56135 13.0182 4.50446 12.0751 4.99575C11.1499 5.47777 10.5214 6.48652 10.8115 7.84077C10.8631 8.08163 10.8054 8.33346 10.6534 8.5273C10.5013 8.72116 10.2707 8.8378 10.0244 8.84503C7.38874 8.92251 4.75876 7.93798 2.80733 6.17104C1.84464 9.30879 3.64602 12.878 6.91842 13.8599C7.20769 13.9467 7.42743 14.184 7.49147 14.4791C7.54747 14.7374 7.47672 15.0046 7.30586 15.2005L7.22643 15.28C6.45352 15.9562 5.53862 16.4517 4.55892 16.7633C10.5438 18.5928 16.8913 13.5098 15.8206 6.81786C15.7787 6.55522 15.8653 6.28864 16.0533 6.10052C16.2042 5.94964 16.3445 5.77832 16.4763 5.5988C16.2615 5.65173 16.0345 5.6912 15.8101 5.6912C15.5999 5.6912 15.3973 5.61093 15.2435 5.46749Z" fill="#171A1F"/>
</svg>
