<svg width="20" height="18" viewBox="0 0 20 18" fill="none" xmlns="http://www.w3.org/2000/svg">
<path d="M12.4794 16.4899V14.8299C12.4794 14.1696 12.2168 13.5364 11.7499 13.0694C11.3414 12.6609 10.8057 12.4087 10.2358 12.3521L9.98937 12.3399H5.00937C4.34899 12.3399 3.71584 12.6025 3.24887 13.0694C2.7819 13.5364 2.51937 14.1696 2.51937 14.8299L2.51937 16.4899C2.51937 16.9483 2.14777 17.3199 1.68937 17.3199C1.23098 17.3199 0.859375 16.9483 0.859375 16.4899L0.859375 14.8299C0.859375 13.7293 1.29692 12.674 2.07519 11.8957C2.85347 11.1175 3.90873 10.6799 5.00937 10.6799H9.98937L10.1952 10.6848C11.2209 10.7357 12.1939 11.1661 12.9236 11.8957C13.7018 12.674 14.1394 13.7293 14.1394 14.8299V16.4899C14.1394 16.9483 13.7678 17.3199 13.3094 17.3199C12.851 17.3199 12.4794 16.9483 12.4794 16.4899Z" fill="#565D6D"/>
<path d="M14.9907 4.83006C14.9907 4.27853 14.8078 3.74245 14.4703 3.30624C14.1749 2.92444 13.7756 2.63784 13.3226 2.47948L13.1256 2.4195L13.0446 2.39437C12.6501 2.2482 12.4229 1.82394 12.5307 1.40794C12.6386 0.992041 13.043 0.732193 13.4588 0.79597L13.5423 0.812993L13.7076 0.859191C14.5296 1.10901 15.2551 1.6089 15.7826 2.29062C16.3452 3.01768 16.6507 3.91075 16.6507 4.83006C16.6507 5.74938 16.3452 6.64244 15.7826 7.36955C15.22 8.09654 14.4322 8.61645 13.5423 8.84711C13.0986 8.96215 12.6458 8.6958 12.5307 8.25217C12.4156 7.80853 12.682 7.35568 13.1256 7.24063C13.6596 7.1022 14.1327 6.79014 14.4703 6.35389C14.8079 5.91768 14.9907 5.3816 14.9907 4.83006Z" fill="#565D6D"/>
<path d="M17.4938 16.4903V14.8311L17.4849 14.6252C17.4449 14.147 17.2676 13.6888 16.9718 13.3073C16.676 12.9257 16.2765 12.6393 15.8232 12.4814L15.6263 12.4213L15.5452 12.3962C15.1506 12.2504 14.9231 11.8267 15.0305 11.4106C15.138 10.9947 15.542 10.7337 15.9578 10.797L16.0412 10.8148L16.2066 10.861C17.029 11.1101 17.7559 11.6086 18.284 12.29C18.8473 13.0167 19.153 13.91 19.1537 14.8295V16.4903C19.1537 16.9487 18.7821 17.3203 18.3238 17.3203C17.8654 17.3203 17.4938 16.9487 17.4938 16.4903Z" fill="#565D6D"/>
<path d="M9.98961 4.82993C9.98961 3.45475 8.87484 2.33993 7.49961 2.33993C6.12442 2.33993 5.00961 3.45475 5.00961 4.82993C5.00961 6.20512 6.12442 7.31993 7.49961 7.31993C8.87484 7.31993 9.98961 6.20512 9.98961 4.82993ZM11.6496 4.82993C11.6496 7.12191 9.79157 8.97993 7.49961 8.97993C5.20763 8.97993 3.34961 7.12191 3.34961 4.82993C3.34961 2.53795 5.20763 0.679932 7.49961 0.679932C9.79157 0.679932 11.6496 2.53795 11.6496 4.82993Z" fill="#565D6D"/>
</svg>
