<svg width="16" height="20" viewBox="0 0 16 20" fill="none" xmlns="http://www.w3.org/2000/svg">
<path d="M13.8103 5.01963C11.8851 5.01963 9.63587 3.91026 8.09191 2.56286C8.06634 2.54103 8.03389 2.52963 8.00027 2.52963C7.96666 2.52963 7.93421 2.54184 7.90864 2.56367L7.90789 2.56286C6.42087 3.8593 4.2564 4.9495 2.37184 5.01639L2.19027 5.01963L2.19027 10.8297L2.19757 11.1717C2.27146 12.8528 2.89287 14.0989 3.83893 15.068C4.74173 15.9926 5.9693 16.6932 7.38101 17.2402L7.99704 17.4656L8.01571 17.4712C9.67986 16.8905 11.1317 16.1263 12.1616 15.0696C13.1703 14.0347 13.8103 12.6854 13.8103 10.8297V5.01963ZM15.4703 10.8297C15.4703 13.1239 14.6577 14.8878 13.3507 16.2287C12.0663 17.5464 10.3412 18.4197 8.55546 19.0421L8.54899 19.0445C8.19366 19.1649 7.80838 19.1606 7.45563 19.034C7.45073 19.0323 7.44592 19.0308 7.44102 19.0291C7.43969 19.0286 7.4382 19.0288 7.43695 19.0283V19.0275C5.65307 18.4095 3.93291 17.5403 2.65147 16.2279C1.42486 14.9716 0.634164 13.3431 0.540001 11.2544L0.530273 10.8297L0.530273 5.01963C0.530373 4.5795 0.705378 4.15718 1.0166 3.84596C1.3279 3.53476 1.7501 3.35963 2.19027 3.35963L2.45694 3.3499C3.8158 3.24987 5.5547 2.41557 6.82333 1.30733L6.83064 1.30165L6.9563 1.20276C7.26008 0.986698 7.62486 0.869629 8.00027 0.869629C8.37568 0.869629 8.74047 0.986698 9.04425 1.20276L9.16991 1.30165L9.17721 1.30733L9.43817 1.52698C10.7711 2.60205 12.5053 3.35963 13.8103 3.35963C14.2504 3.35963 14.6726 3.53476 14.984 3.84596C15.2951 4.15718 15.4702 4.5795 15.4703 5.01963V10.8297Z" fill="#565D6D"/>
<path d="M9.9669 7.69636C10.2928 7.43047 10.7734 7.44922 11.0773 7.7531C11.3812 8.05697 11.4 8.53755 11.134 8.86358L11.0773 8.92674L7.75727 12.2467C7.45341 12.5507 6.97284 12.5694 6.6469 12.3035L6.58365 12.2467L4.92364 10.5867L4.8669 10.5236C4.60101 10.1976 4.61976 9.71698 4.92364 9.41312C5.22751 9.10926 5.70808 9.0905 6.03408 9.35635L6.0973 9.41312L7.17046 10.4862L9.90365 7.7531L9.9669 7.69636Z" fill="#565D6D"/>
</svg>
