<svg width="40" height="41" viewBox="0 0 40 41" fill="none" xmlns="http://www.w3.org/2000/svg">
<path d="M10.005 8.83002C10.9273 8.83002 11.675 9.57771 11.675 10.5C11.675 11.4223 10.9273 12.17 10.005 12.17L4.99495 12.17C4.07264 12.17 3.32495 11.4223 3.32495 10.5C3.32495 9.57771 4.07264 8.83002 4.99495 8.83002L10.005 8.83002Z" fill="#FF9BFE"/>
<path d="M28.3565 8.83002L28.5277 8.83817C29.3697 8.92372 30.0265 9.63536 30.0265 10.5C30.0265 11.3647 29.3697 12.0763 28.5277 12.1619L28.3565 12.17H28.3402C27.4178 12.17 26.6702 11.4223 26.6702 10.5C26.6702 9.57771 27.4178 8.83002 28.3402 8.83002H28.3565Z" fill="#FF9BFE"/>
<path d="M33.3601 7.14001C33.3601 6.2177 32.6124 5.47001 31.6901 5.47001L8.31005 5.47001C7.38774 5.47001 6.64005 6.2177 6.64005 7.14001L6.64005 33.86C6.64005 34.7823 7.38774 35.53 8.31005 35.53L31.6901 35.53C32.6124 35.53 33.3601 34.7823 33.3601 33.86L33.3601 7.14001ZM36.7001 33.86C36.7001 36.627 34.4571 38.87 31.6901 38.87L8.31005 38.87C5.54311 38.87 3.30005 36.627 3.30005 33.86L3.30005 7.14001C3.30005 4.37307 5.54311 2.13 8.31005 2.13L31.6901 2.13C34.4571 2.13 36.7001 4.37307 36.7001 7.14001L36.7001 33.86Z" fill="#FF9BFE"/>
<path d="M26.68 22.17C26.68 18.4808 23.6892 15.49 20 15.49C16.3107 15.49 13.32 18.4808 13.32 22.17C13.32 25.8592 16.3107 28.85 20 28.85C23.6892 28.85 26.68 25.8592 26.68 22.17ZM30.02 22.17C30.02 27.7039 25.5339 32.19 20 32.19C14.4661 32.19 9.97998 27.7039 9.97998 22.17C9.97998 16.6361 14.4661 12.15 20 12.15C25.5339 12.15 30.02 16.6361 30.02 22.17Z" fill="#FF9BFE"/>
<path d="M22.505 26.345C22.505 25.6807 22.241 25.0438 21.7711 24.574C21.3013 24.1041 20.6644 23.84 20 23.84C18.4498 23.84 16.9636 23.2238 15.8674 22.1276C14.7713 21.0314 14.155 19.5453 14.155 17.995C14.155 16.4448 14.7713 14.9586 15.8674 13.8624C16.9636 12.7663 18.4498 12.15 20 12.15C20.9224 12.15 21.67 12.8977 21.67 13.82C21.67 14.7423 20.9224 15.49 20 15.49C19.3357 15.49 18.6988 15.7541 18.229 16.2239C17.7591 16.6937 17.495 17.3307 17.495 17.995C17.495 18.6594 17.7591 19.2963 18.229 19.7661C18.6988 20.236 19.3357 20.5 20 20.5C21.5503 20.5 23.0364 21.1163 24.1326 22.2124C25.2288 23.3086 25.845 24.7948 25.845 26.345C25.845 27.8953 25.2288 29.3814 24.1326 30.4776C23.0364 31.5738 21.5503 32.19 20 32.19C19.0777 32.19 18.33 31.4424 18.33 30.52C18.33 29.5977 19.0777 28.85 20 28.85C20.6644 28.85 21.3013 28.586 21.7711 28.1161C22.241 27.6463 22.505 27.0094 22.505 26.345Z" fill="#FF9BFE"/>
</svg>
